<svg width="63" height="64" viewBox="0 0 63 64" fill="none" xmlns="http://www.w3.org/2000/svg">
<path d="M41.9891 57.1364L41.8577 63.5776H29.1929L28.3286 63.2843L27.3179 63.5776H14.9114L13.8525 63.2976C13.8525 63.2976 13.2516 63.5706 13.0774 63.557C11.0497 63.3989 10.4449 62.3489 10.4366 61.0718L10.3967 55.0761C10.3967 52.1118 11.4861 49.3855 13.573 47.1039L21.1152 52.3114L31.144 45.386C33.5701 47.8945 35.0612 51.3109 35.0612 55.0761L35.0561 56.1708C35.0535 56.7039 35.4849 57.1365 36.0167 57.1365H41.9891V57.1364Z" fill="#225FD6"/>
<path d="M13.8526 63.2976L13.0365 63.5776H9.7291C8.34222 63.5776 7.21672 62.4586 7.20772 61.0718L7.16785 55.0761C7.16785 51.3109 8.6591 47.8945 11.0851 45.386L13.573 47.1039C11.9955 49.3625 11.071 52.1119 11.071 55.0761L11.1108 61.0718C11.1186 62.2681 11.9572 63.2651 13.0777 63.5165C13.2561 63.5565 13.8526 63.2976 13.8526 63.2976Z" fill="#3774ED"/>
<path d="M31.144 45.3846C31.144 45.3859 24.6203 52.8161 24.6203 52.8161L21.1151 55.5036L17.6086 52.8161L13.1531 47.7412C14.2085 44.2631 18.6435 41.5704 23.0673 41.2653C23.3487 41.2459 23.6236 41.3515 23.8966 41.4069C26.7128 41.976 29.2213 43.3951 31.144 45.3846Z" fill="black"/>
<path d="M23.0673 41.2651C18.8898 41.855 15.3217 44.2591 13.1531 47.7411L11.085 45.3859C13.6205 42.7603 17.1772 41.1286 21.1151 41.1286C21.7783 41.1288 22.4298 41.175 23.0673 41.2651Z" fill="black"/>
<path d="M43.3878 11.0856H59.7819C61.2757 11.0856 62.4862 12.2961 62.4862 13.7899V34.2533C62.4862 35.747 61.2757 36.9575 59.7819 36.9575H54.8461L50.7444 35.1936L46.2646 36.9575H37.6174L43.3878 11.0856Z" fill="#DEDDF5"/>
<path d="M56.2252 32.0925L54.846 36.9576H46.2645L48.7395 29.7489C49.4465 27.6897 51.5455 26.6287 53.6227 27.2777C55.6998 27.9279 56.8188 29.9986 56.2252 32.0925Z" fill="#C7C4EA"/>
<path d="M44.6241 26.5733C44.6241 29.7154 42.4388 32.3565 39.5079 33.0558C39.0224 34.4336 38.3851 35.742 37.6176 36.9576H34.7124C33.2187 36.9576 32.0082 35.7471 32.0082 34.2534V13.7899C32.0082 12.2961 33.2187 11.0856 34.7124 11.0856H43.3879C43.6082 11.4849 43.7987 11.9085 43.9571 12.354C44.7168 14.4943 44.5842 16.7169 43.6583 18.5803C44.0691 19.2756 44.3318 20.0689 44.4207 20.9214C44.5249 21.9181 44.3756 22.9123 44.0177 23.7918C44.4141 24.6558 44.6241 25.6023 44.6241 26.5733Z" fill="#C7C4EA"/>
<path d="M51.1752 30.5848L42.2089 56.7065L46.3297 57.5623L53.7475 31.39C54.2246 29.707 51.7432 28.9301 51.1752 30.5848Z" fill="#E4996D"/>
<path d="M45.8922 57.1364L45.7608 63.5776H41.8578L41.989 57.1364H45.8922Z" fill="#C7C4EA"/>
<path d="M22.004 48.9196H20.2251C19.3006 48.9196 18.5511 48.1701 18.5511 47.2456V45.1156C18.5511 44.1911 19.3006 43.4416 20.2251 43.4416H22.004C22.9285 43.4416 23.678 44.1911 23.678 45.1156V47.2456C23.678 48.1701 22.9285 48.9196 22.004 48.9196Z" fill="white"/>
<path d="M21.5016 56.3684L24.6203 52.8165L23.9668 50.1137C23.7974 49.4131 23.1703 48.9196 22.4495 48.9196H19.7796C19.0589 48.9196 18.4318 49.4131 18.2624 50.1137L17.6089 52.8165L20.7275 56.3684C20.9326 56.6021 21.2965 56.6021 21.5016 56.3684Z" fill="white"/>
<path d="M37.9611 30.6615C40.2188 30.6615 42.049 28.8312 42.049 26.5735C42.049 24.3158 40.2188 22.4855 37.9611 22.4855C35.7033 22.4855 33.873 24.3158 33.873 26.5735C33.873 28.8312 35.7033 30.6615 37.9611 30.6615Z" fill="#FFCBBE"/>
<path d="M4.26818 30.6615C6.52592 30.6615 8.35618 28.8312 8.35618 26.5735C8.35618 24.3158 6.52592 22.4855 4.26818 22.4855C2.01044 22.4855 0.180176 24.3158 0.180176 26.5735C0.180176 28.8312 2.01044 30.6615 4.26818 30.6615Z" fill="#FFCBBE"/>
<path d="M38.0335 26.5849C38.0335 34.7736 32.2167 41.6025 24.4891 43.167C15.1843 41.3992 10.2832 34.7735 10.2832 26.5849C10.2832 18.3949 15.6086 11.4266 24.4891 10.0014C32.2167 11.566 38.0335 18.3949 38.0335 26.5849Z" fill="#FFDDCF"/>
<path d="M24.4889 43.167C23.3982 43.3872 22.2702 43.5031 21.1151 43.5031C11.7699 43.5031 4.19543 35.9286 4.19543 26.5849C4.19543 17.2397 11.7699 9.66537 21.1151 9.66537C22.2702 9.66537 23.3982 9.78125 24.4889 10.0015C16.7599 11.5647 10.9433 18.3949 10.9433 26.5849C10.9433 34.7735 16.7599 41.6037 24.4889 43.167Z" fill="#FFCBBE"/>
<path d="M44.2601 64H42.9924C40.9001 64 39.2041 62.304 39.2041 60.2118V59.8829C39.2041 57.7908 40.9001 56.0946 42.9924 56.0946H44.2601C46.3524 56.0946 48.0484 57.7906 48.0484 59.8829V60.2118C48.0484 62.304 46.3524 64 44.2601 64Z" fill="#FFDDCF"/>
<path d="M40.9578 23.7956C40.0409 23.7956 39.1576 23.7248 38.3012 23.5253C37.9458 23.4429 37.6586 23.1789 37.5466 22.8311C37.2619 21.9426 36.9401 21.1429 36.5859 20.4205C34.0053 20.5004 31.6989 18.5868 31.2083 16.171C28.8621 17.1793 25.8165 16.5006 24.1322 14.685C22.4233 15.8324 19.804 15.8324 18.0965 14.685C17.1217 15.7345 15.6949 16.4029 14.2102 16.587C13.3734 10.4019 17.9753 2.99302 24.4722 1.09814C25.2513 1.68789 25.8668 2.48502 26.2338 3.40839C31.1221 -1.24035 38.7699 3.41614 37.0778 9.65264C41.4793 9.99652 43.4856 15.8131 40.3281 18.8161C42.3306 19.9285 42.2262 22.6971 40.9578 23.7956Z" fill="#7A8FA5"/>
<path d="M24.4722 1.09802C18.752 4.05976 14.7227 9.83139 14.2102 16.5869C13.1259 16.722 12.0107 16.5973 11.0192 16.171C10.5285 18.5868 8.22215 20.5004 5.6429 20.4205C5.28753 21.1429 4.96553 21.9426 4.68103 22.8311C4.56903 23.1788 4.28315 23.4428 3.9264 23.5253C3.0714 23.7249 2.18665 23.7956 1.26977 23.7956C0.00139898 22.6971 -0.102976 19.9285 1.89952 18.816C-1.25798 15.813 0.748275 9.99626 5.14978 9.65251C3.45765 3.41589 11.1055 -1.24048 15.9938 3.40814C16.805 1.34776 18.8783 -0.0789847 21.2155 0.00339032C22.4389 0.00339032 23.5669 0.410265 24.4722 1.09802Z" fill="#6A829A"/>
<path d="M14.9113 63.5776V56.3238C14.9113 55.8059 14.4915 55.3863 13.9738 55.3863C13.456 55.3863 13.0363 55.8059 13.0363 56.3238V63.5776H14.9113Z" fill="#124AB8"/>
<path d="M29.1929 63.5776V56.3238C29.1929 55.8059 28.7731 55.3863 28.2554 55.3863C27.7376 55.3863 27.3179 55.8059 27.3179 56.3238V63.5776H29.1929Z" fill="#124AB8"/>
<path d="M57.612 24.4849H46.9479C46.4301 24.4849 46.0104 24.0653 46.0104 23.5474C46.0104 23.0295 46.4301 22.6099 46.9479 22.6099H57.612C58.1298 22.6099 58.5495 23.0295 58.5495 23.5474C58.5495 24.0653 58.1298 24.4849 57.612 24.4849Z" fill="#7A8FA5"/>
<path d="M57.612 18.979H46.9479C46.4301 18.979 46.0104 18.5594 46.0104 18.0415C46.0104 17.5236 46.4301 17.104 46.9479 17.104H57.612C58.1298 17.104 58.5495 17.5236 58.5495 18.0415C58.5495 18.5594 58.1298 18.979 57.612 18.979Z" fill="#7A8FA5"/>
<path d="M11.1699 33.1939C13.1964 33.1939 14.8392 31.8856 14.8392 30.2718C14.8392 28.6579 13.1964 27.3496 11.1699 27.3496C9.14332 27.3496 7.50049 28.6579 7.50049 30.2718C7.50049 31.8856 9.14332 33.1939 11.1699 33.1939Z" fill="#FFA1AC"/>
<path d="M31.0591 33.1939C33.0857 33.1939 34.7285 31.8856 34.7285 30.2718C34.7285 28.6579 33.0857 27.3496 31.0591 27.3496C29.0326 27.3496 27.3898 28.6579 27.3898 30.2718C27.3898 31.8856 29.0326 33.1939 31.0591 33.1939Z" fill="#FFA1AC"/>
<path d="M13.3079 28.3963C12.7901 28.3963 12.3704 27.9767 12.3704 27.4588V25.9588C12.3704 25.4409 12.7901 25.0213 13.3079 25.0213C13.8256 25.0213 14.2454 25.4409 14.2454 25.9588V27.4588C14.2454 27.9767 13.8256 28.3963 13.3079 28.3963Z" fill="#5B778F"/>
<path d="M28.9207 28.3963C28.4029 28.3963 27.9832 27.9766 27.9832 27.4588V25.9588C27.9832 25.4409 28.4029 25.0213 28.9207 25.0213C29.4384 25.0213 29.8582 25.4409 29.8582 25.9588V27.4588C29.8582 27.9766 29.4385 28.3963 28.9207 28.3963Z" fill="#5B778F"/>
<path d="M21.114 29.2894C20.0543 29.2894 19.0465 28.8304 18.3491 28.0301C18.009 27.6399 18.0496 27.0476 18.44 26.7075C18.8304 26.3674 19.4225 26.408 19.7628 26.7985C20.1039 27.19 20.5964 27.4145 21.114 27.4145C21.6316 27.4145 22.1241 27.19 22.4653 26.7984C22.8055 26.408 23.3976 26.3675 23.788 26.7075C24.1784 27.0478 24.219 27.6399 23.8789 28.0303C23.1815 28.8304 22.1738 29.2894 21.114 29.2894Z" fill="#5B778F"/>
</svg>
