<?xml version="1.0" encoding="utf-8"?>
<!-- Generator: Adobe Illustrator 25.4.1, SVG Export Plug-In . SVG Version: 6.00 Build 0)  -->
<svg version="1.1" id="Layer_1" xmlns="http://www.w3.org/2000/svg" xmlns:xlink="http://www.w3.org/1999/xlink" x="0px" y="0px"
	 viewBox="0 0 52 64" style="enable-background:new 0 0 52 64;" xml:space="preserve">
<style type="text/css">
	.st0{fill:#0A3DA5;}
	.st1{fill:url(#SVGID_1_);}
	.st2{fill:#11003E;}
	.st3{fill:#F9F1D1;}
	.st4{fill:#EAF6FF;}
	.st5{fill:#D8ECFE;}
	.st6{fill:#425460;}
	.st7{fill:#C4E2FF;}
</style>
<path class="st0" d="M47.8,15.1L16.3,60.1c1,2.3,3.2,3.9,5.9,3.9h23.1c3.5,0,6.4-2.9,6.4-6.4V20.9C51.7,18.3,50.1,16,47.8,15.1z"/>
<linearGradient id="SVGID_1_" gradientUnits="userSpaceOnUse" x1="16.0738" y1="42.6908" x2="46.4283" y2="15.6008" gradientTransform="matrix(1 0 0 -1 0 66)">
	<stop  offset="0" style="stop-color:#1F8CD3"/>
	<stop  offset="1" style="stop-color:#225ED5"/>
</linearGradient>
<path class="st1" d="M45.3,14.5h-1.4L15.8,56.2v1.4c0,0.9,0.2,1.7,0.5,2.5h21.2c5.6,0,10.2-4.6,10.2-10.2V15.1
	C47.1,14.7,46.2,14.5,45.3,14.5z"/>
<path class="st2" d="M40.1,7.3L10.2,54.6c1.1,1,2.6,1.6,4.2,1.6h23.1c3.5,0,6.4-2.9,6.4-6.4V14.5v-1.4C43.9,10.5,42.3,8.3,40.1,7.3z
	"/>
<path class="st3" d="M37.6,6.8h-1.4l-28,44.3c0.3,1.4,1,2.7,2,3.6c5.6-0.9,11.7-1.9,15.6-2.6c5-0.8,14.2-1.7,14.2-11.3V7.3
	C39.3,7,38.5,6.8,37.6,6.8z"/>
<path class="st4" d="M29.4,47.5c3.7,0,6.8-3,6.8-6.8c0-1.9,0-32.5,0-34.4c0-3.5-2.9-6.4-6.4-6.4H12.6c-7.5,13.4-6.3,31.5,4,43.9
	C16.6,43.9,25.6,47.5,29.4,47.5z"/>
<path class="st5" d="M12.6,0H6.7C3.2,0,0.3,2.9,0.3,6.4v46c6.4-2.3,12-5.1,16.3-8.5c-1.8-3.8-3.3-7.9-4.4-12.4
	C9.1,19.6,9.5,8.1,12.6,0z"/>
<path class="st6" d="M10.2,10.3c-0.5,0-1-0.4-1-1V7.8c0-0.5,0.4-1,1-1c0.5,0,1,0.4,1,1v1.6C11.1,9.8,10.7,10.3,10.2,10.3z"/>
<path class="st6" d="M26.3,10.3c-0.5,0-1-0.4-1-1V7.8c0-0.5,0.4-1,1-1c0.5,0,1,0.4,1,1v1.6C27.3,9.8,26.9,10.3,26.3,10.3z"/>
<path class="st6" d="M15.4,9.9c-0.4-0.4-0.3-1,0.1-1.4c0.4-0.4,1-0.3,1.4,0.1c0.4,0.4,0.9,0.6,1.4,0.6c0.5,0,1-0.2,1.4-0.6
	c0.4-0.4,1-0.4,1.4-0.1c0.4,0.4,0.4,1,0.1,1.4C19.6,11.6,16.9,11.6,15.4,9.9z"/>
<path class="st5" d="M27.7,47.3c-2.5-0.6-4.5-2.7-5-5.2c-0.1-0.6-0.8-1-1.4-0.7l-4.8,2.5c-1,2.6,0,4.3,2.9,5.3l10-1.7
	C28.8,47.5,28.3,47.4,27.7,47.3z"/>
<path class="st7" d="M0.3,52.4c1-0.2,18.4-3.1,19.1-3.2c-1-1.7-2-3.4-2.9-5.3L0.3,52.4z"/>
<path class="st5" d="M18.7,17.5c0.5,0,1-0.4,1-1c0-0.5-0.4-1-1-1h-8.6c-0.7,0.6-0.6,1.2,0,1.9L18.7,17.5L18.7,17.5z"/>
<path class="st7" d="M5.2,16.5c0,0.5,0.4,1,1,1h4c0-0.7,0-1.3,0-1.9h-4C5.6,15.5,5.2,15.9,5.2,16.5z"/>
<path class="st5" d="M30.4,22.3c0.5,0,1-0.4,1-1c0-0.5-0.4-1-1-1H10.3c-0.8,0.6-0.8,1.3,0.2,1.9H30.4z"/>
<path class="st7" d="M5.2,21.3c0,0.5,0.4,1,1,1h4.4c-0.1-0.7-0.1-1.3-0.2-1.9H6.1C5.6,20.4,5.2,20.8,5.2,21.3z"/>
<path class="st5" d="M30.4,27.2c0.5,0,1-0.4,1-1c0-0.5-0.4-1-1-1H10.9c-0.8,0.7-0.7,1.3,0.3,1.9H30.4z"/>
<path class="st7" d="M5.2,26.2c0,0.5,0.4,1,1,1h5.1c-0.1-0.6-0.2-1.3-0.3-1.9H6.1C5.6,25.2,5.2,25.6,5.2,26.2z"/>
<path class="st5" d="M12.3,32h18c0.5,0,1-0.4,1-0.9c0-0.5-0.4-1-1-1H11.8l-0.1,0.3c-0.2,0.5-0.1,1.1,0.3,1.4L12.3,32z"/>
<path class="st7" d="M5.2,31c0,0.5,0.4,1,1,1h6.2c-0.1-0.4-0.2-0.9-0.5-1.9H6.1C5.6,30.1,5.2,30.5,5.2,31z"/>
</svg>
