<?xml version="1.0" encoding="utf-8"?>
<!-- Generator: Adobe Illustrator 25.4.1, SVG Export Plug-In . SVG Version: 6.00 Build 0)  -->
<svg version="1.1" id="Layer_1" xmlns="http://www.w3.org/2000/svg" xmlns:xlink="http://www.w3.org/1999/xlink" x="0px" y="0px"
	 viewBox="0 0 64 64" style="enable-background:new 0 0 64 64;" xml:space="preserve">
<style type="text/css">
	.st0{fill:#FAE0BD;}
	.st1{fill:#F8C7A5;}
	.st2{fill:#FFFFFF;filter:url(#Adobe_OpacityMaskFilter);}
	.st3{mask:url(#mask0_201_1365_00000129186047910956762920000007942573040983887274_);}
	.st4{fill:url(#SVGID_1_);}
	.st5{fill:#1A72BC;}
	.st6{fill:url(#SVGID_00000150820961774283301780000007976932846213796025_);}
	.st7{fill:url(#SVGID_00000153682198299727952020000005498300855293288121_);}
	.st8{fill:none;stroke:#11003E;stroke-width:1.875;stroke-linecap:round;stroke-linejoin:round;stroke-miterlimit:10;}
	.st9{fill:#FBF1CF;}
	.st10{fill:#6E768F;}
	.st11{fill:#404656;}
	.st12{fill:#565E75;}
	.st13{fill:#11003E;}
	.st14{fill:#2A2A61;}
	.st15{fill:url(#SVGID_00000019657953497965323800000011153772882360559001_);}
	.st16{fill:#398BEB;}
	.st17{fill:url(#SVGID_00000066492427261007696220000008778447423715523243_);}
	.st18{fill:none;stroke:#FFFFFF;stroke-width:1.875;stroke-linecap:round;stroke-linejoin:round;stroke-miterlimit:10;}
</style>
<path class="st0" d="M60.3,61.4H3.7V33.1h56.7V61.4z"/>
<path class="st1" d="M51.3,61.4H12.7V33.1h38.6V61.4z"/>
<defs>
	<filter id="Adobe_OpacityMaskFilter" filterUnits="userSpaceOnUse" x="0" y="0" width="64" height="64">
		<feColorMatrix  type="matrix" values="1 0 0 0 0  0 1 0 0 0  0 0 1 0 0  0 0 0 1 0"/>
	</filter>
</defs>
<mask maskUnits="userSpaceOnUse" x="0" y="0" width="64" height="64" id="mask0_201_1365_00000129186047910956762920000007942573040983887274_">
	<path class="st2" d="M0,0h64v64H0V0z"/>
</mask>
<g class="st3">
	
		<linearGradient id="SVGID_1_" gradientUnits="userSpaceOnUse" x1="31.3084" y1="12.7364" x2="32.6437" y2="22.9199" gradientTransform="matrix(1 0 0 -1 0 66)">
		<stop  offset="0" style="stop-color:#1F8CD3"/>
		<stop  offset="1" style="stop-color:#225ED5"/>
	</linearGradient>
	<path class="st4" d="M11.4,51.8h41.2c1.4,0,2.6-1.2,2.6-2.6v-2.6c0-1.4-1.2-2.6-2.6-2.6H11.4c-1.4,0-2.6,1.2-2.6,2.6v2.6
		C8.8,50.7,10,51.8,11.4,51.8z"/>
	<path class="st5" d="M12.7,51.8h38.6v-7.7H12.7V51.8z"/>
	
		<linearGradient id="SVGID_00000141439430335362668650000012371051374489281961_" gradientUnits="userSpaceOnUse" x1="2.439397e-04" y1="26.8214" x2="64.0003" y2="26.8214">
		<stop  offset="0" style="stop-color:#1F8CD3"/>
		<stop  offset="1" style="stop-color:#225ED5"/>
	</linearGradient>
	<path style="fill:url(#SVGID_00000141439430335362668650000012371051374489281961_);" d="M56.7,16.5H7.3c-1.1,0-2.1,0.7-2.5,1.8
		L0.1,33.8c-0.5,1.7,0.7,3.3,2.5,3.3h58.8c1.7,0,3-1.7,2.5-3.3l-4.7-15.5C58.9,17.3,57.9,16.5,56.7,16.5z"/>
	
		<linearGradient id="SVGID_00000124842336225506244080000004618938003227904927_" gradientUnits="userSpaceOnUse" x1="32" y1="3.8633" x2="42.3018" y2="3.8633">
		<stop  offset="0" style="stop-color:#1F8CD3"/>
		<stop  offset="1" style="stop-color:#225ED5"/>
	</linearGradient>
	<path style="fill:url(#SVGID_00000124842336225506244080000004618938003227904927_);" d="M41,7.7h-9V0h9c0.7,0,1.3,0.6,1.3,1.3v5.2
		C42.3,7.2,41.7,7.7,41,7.7z"/>
	<path class="st5" d="M37.2,6.4V1.3c0-0.7,0.6-1.3,1.3-1.3H32v7.7h6.4C37.7,7.7,37.2,7.1,37.2,6.4z"/>
	<path class="st8" d="M32,1v9.3"/>
	<path class="st9" d="M46.2,27.6L32,13.4L17.8,27.6v33.8h28.3V27.6z"/>
	<path class="st0" d="M17.8,27.6v33.8h7.7V19.9L17.8,27.6z"/>
	<path class="st10" d="M41,61.4H23V46.7c0-1.4,1.2-2.6,2.6-2.6h12.9c1.4,0,2.6,1.2,2.6,2.6V61.4z"/>
	<path class="st11" d="M31.1,61.4h1.9V44.1h-1.9V61.4z"/>
	<path class="st12" d="M30.7,44.1h-5.2c-1.4,0-2.6,1.2-2.6,2.6v14.7h5.2V46.7C28.1,45.3,29.3,44.1,30.7,44.1z"/>
	<path class="st13" d="M47.5,30.9c-0.7,0-1.3-0.3-1.8-0.8L32,16.5L18.4,30.2c-1,1-2.6,1-3.6,0c-1-1-1-2.6,0-3.6l15.5-15.5
		c1-1,2.6-1,3.6,0l15.5,15.5c1,1,1,2.6,0,3.6C48.8,30.7,48.1,30.9,47.5,30.9z"/>
	<path class="st14" d="M28.9,13.4c0-0.5,0.1-1,0.3-1.4L14.7,26.5c-1,1-1,2.6,0,3.6c1,1,2.6,1,3.6,0L32,16.5
		C30.3,16.5,28.9,15.1,28.9,13.4z"/>
	
		<linearGradient id="SVGID_00000155120701465262359810000011180731308660697245_" gradientUnits="userSpaceOnUse" x1="27.6524" y1="27.2135" x2="36.042" y2="37.8773" gradientTransform="matrix(1 0 0 -1 0 66)">
		<stop  offset="0" style="stop-color:#1F8CD3"/>
		<stop  offset="1" style="stop-color:#225ED5"/>
	</linearGradient>
	<path style="fill:url(#SVGID_00000155120701465262359810000011180731308660697245_);" d="M38.4,33.3c0,3.6-2.9,6.4-6.4,6.4
		c-3.6,0-6.4-2.9-6.4-6.4c0-3.6,2.9-6.4,6.4-6.4C35.6,26.8,38.4,29.7,38.4,33.3z"/>
	<path class="st16" d="M29.4,33.3c0-2.9,1.9-5.3,4.5-6.1c-0.6-0.2-1.3-0.3-1.9-0.3c-3.6,0-6.4,2.9-6.4,6.4c0,3.6,2.9,6.4,6.4,6.4
		c0.7,0,1.3-0.1,1.9-0.3C31.3,38.6,29.4,36.1,29.4,33.3z"/>
	
		<linearGradient id="SVGID_00000116205661710594612950000008746951996814322860_" gradientUnits="userSpaceOnUse" x1="0" y1="61.4245" x2="64" y2="61.4245">
		<stop  offset="0" style="stop-color:#1F8CD3"/>
		<stop  offset="1" style="stop-color:#225ED5"/>
	</linearGradient>
	<path style="fill:url(#SVGID_00000116205661710594612950000008746951996814322860_);" d="M61.4,64H2.6C1.2,64,0,62.8,0,61.4
		c0-1.4,1.2-2.6,2.6-2.6h58.8c1.4,0,2.6,1.2,2.6,2.6C64,62.8,62.8,64,61.4,64z"/>
	<path class="st5" d="M10.3,61.4c0-1.4,1.2-2.6,2.6-2.6H2.6C1.2,58.8,0,60,0,61.4C0,62.8,1.2,64,2.6,64h10.3
		C11.5,64,10.3,62.8,10.3,61.4z"/>
	<path class="st18" d="M32,30.7v2.6h2.6"/>
</g>
</svg>
