<?xml version="1.0" encoding="utf-8"?>
<!-- Generator: Adobe Illustrator 25.4.1, SVG Export Plug-In . SVG Version: 6.00 Build 0)  -->
<svg version="1.1" id="Layer_1" xmlns="http://www.w3.org/2000/svg" xmlns:xlink="http://www.w3.org/1999/xlink" x="0px" y="0px"
	 viewBox="0 0 53 64" style="enable-background:new 0 0 53 64;" xml:space="preserve">
<style type="text/css">
	.st0{fill:#171717;}
	.st1{fill:#001F5C;}
	.st2{fill:#DBDBDB;}
	.st3{fill:#C8C8C8;}
	.st4{fill:#FFCBBE;}
	.st5{fill:#407ACC;}
	.st6{fill:#3A70B5;}
	.st7{fill:#EAE8E5;}
	.st8{fill:#FFDDCF;}
	.st9{fill:#FFA1AC;}
	.st10{fill:#495560;}
	.st11{fill:#225FD6;}
</style>
<path class="st0" d="M52.1,25.3c0,2.3-0.3,4.5-0.9,6.7H2.1c-0.5-2-0.8-4.2-0.8-6.4C1.1,11.5,12.8,0,26.9,0h3.9
	c10.7,0,19.3,3.3,19.3,7.3c0,0.9-0.5,1.8-1.3,2.7c-0.6,0.6-0.8,1.5-0.3,2.3C50.7,16,52.1,20.5,52.1,25.3z"/>
<path d="M17.3,26.3c0-0.5-0.1-1.1-0.1-1.7c-0.1-11.4,7.6-21.2,18-24.5C33.8,0.1,32.3,0,30.8,0h-3.9C12.8,0,1.1,11.5,1.2,25.6
	c0,2.2,0.3,4.3,0.8,6.4h15.2V26.3z"/>
<path d="M51.2,30.4h-49C1.6,33,1,35.3,0.7,38c-0.6,5.3,1.2,10.2,4.6,12.6c1,0.6,2.2-0.1,2.1-1.3l-0.3-3.2c0,0,1.4,9.9,19.5,9.9
	s19.5-9.9,19.5-9.9l-0.3,3.2c-0.1,1.2,1.2,1.9,2.1,1.3c3.5-2.3,5.2-7.3,4.6-12.6C52.3,35.3,51.7,33,51.2,30.4z"/>
<path class="st1" d="M42.4,60.5H10.9c-3.9,0-7.1-3.2-7.1-7.1V47c0-3.9,3.2-7.1,7.1-7.1h31.5c3.9,0,7.1,3.2,7.1,7.1v6.3
	C49.5,57.3,46.3,60.5,42.4,60.5z"/>
<path class="st2" d="M47.2,61.4c-0.3-2.3-0.9-4.4-1.9-6.4c-0.2-0.5-0.5-1-0.8-1.5h-2.7l-2-5.5c-3.6-3-8.2-4.8-13.2-4.8
	c-5,0-9.6,1.8-13.2,4.8l-2,5.5H8.8C8.5,54,8.2,54.5,8,55c-1,2-1.6,4.1-1.9,6.4C5.9,62.8,7,64,8.4,64h3.8l4.2-2.6l2.3,2.6H22l4.6-2.1
	l4.6,2.1h3.3l2.3-2.6l4.2,2.6h3.8C46.3,64,47.4,62.8,47.2,61.4z"/>
<path class="st3" d="M13.5,48l-2,5.5H8.8C8.5,54,8.2,54.5,8,55c-1,2-1.6,4.1-1.9,6.4C5.9,62.8,7,64,8.4,64h3.8l4.2-2.6
	c0.3-2.3,0.9-4.4,1.9-6.4c2.6-5.4,7.5-9.5,13.5-11.1c-1.7-0.4-3.4-0.7-5.2-0.7C21.6,43.3,17,45.1,13.5,48z"/>
<path class="st4" d="M6,36.1c3,0,5.5-2.5,5.5-5.5S9,25.1,6,25.1c-3,0-5.5,2.5-5.5,5.5S3,36.1,6,36.1z"/>
<path class="st4" d="M47.3,36.1c3,0,5.5-2.5,5.5-5.5c0-3-2.5-5.5-5.5-5.5c-3,0-5.5,2.5-5.5,5.5C41.8,33.6,44.3,36.1,47.3,36.1z"/>
<path class="st5" d="M22,64h9.3l-2.5-13.4h-4.4L22,64z"/>
<path class="st6" d="M26.7,56.3c2.3,0,4.1-1.8,4.1-4.1c0-2.3-1.8-4.1-4.1-4.1c-2.3,0-4.1,1.8-4.1,4.1C22.6,54.5,24.4,56.3,26.7,56.3
	z"/>
<path class="st7" d="M19,40.9l7.7,7.9c0,0-3,5.4-4.9,5.4c-1.1,0-2.8-3.6-3.9-6.6C17,45.3,17.4,42.7,19,40.9z"/>
<path class="st7" d="M34.4,40.9l-7.7,7.9c0,0,3,5.4,4.9,5.4c1.1,0,2.8-3.6,3.9-6.6C36.4,45.3,35.9,42.7,34.4,40.9z"/>
<path class="st8" d="M41.8,23.9c-5,0-9.5-2.3-12.4-5.8c-1.4-1.7-4-1.7-5.4,0c-2.9,3.5-7.4,5.8-12.4,5.8c-0.9,0-1.8-0.1-2.7-0.2
	C7.9,23.5,7,24.1,6.9,25c-0.2,1.2-0.3,2.5-0.3,3.9C6.6,40,15.9,49,27,48.8c11-0.2,19.8-9.1,19.8-20.1c0-1.3-0.1-2.5-0.3-3.7
	c-0.2-0.9-1-1.5-1.9-1.3C43.6,23.8,42.7,23.9,41.8,23.9z"/>
<path class="st4" d="M13.8,23.8c-0.7,0.1-1.5,0.2-2.2,0.2c-0.9,0-1.8-0.1-2.7-0.2C7.9,23.5,7,24.1,6.9,25c-0.2,1.2-0.3,2.5-0.3,3.9
	C6.6,40,15.9,49,27,48.8c1.1,0,2.1-0.1,3.2-0.3C20.6,44.3,13.9,34.8,13.8,23.8z"/>
<path class="st9" d="M16,36.6c2.2,0,3.9-1.4,3.9-3.1s-1.8-3.1-3.9-3.1c-2.2,0-3.9,1.4-3.9,3.1S13.8,36.6,16,36.6z"/>
<path class="st9" d="M37.3,36.6c2.2,0,3.9-1.4,3.9-3.1s-1.8-3.1-3.9-3.1c-2.2,0-3.9,1.4-3.9,3.1S35.2,36.6,37.3,36.6z"/>
<path class="st10" d="M18.3,31.4c-0.5,0-0.9-0.4-0.9-0.9v-1.6c0-0.5,0.4-0.9,0.9-0.9c0.5,0,0.9,0.4,0.9,0.9v1.6
	C19.2,31,18.8,31.4,18.3,31.4z"/>
<path class="st10" d="M35,31.4c-0.5,0-0.9-0.4-0.9-0.9v-1.6c0-0.5,0.4-0.9,0.9-0.9c0.5,0,0.9,0.4,0.9,0.9v1.6
	C36,31,35.6,31.4,35,31.4z"/>
<path class="st10" d="M26.7,32.4c-1.1,0-2.2-0.5-2.9-1.3c-0.3-0.4-0.3-1,0.1-1.3c0.4-0.3,1-0.3,1.3,0.1c0.4,0.4,0.9,0.7,1.5,0.7
	c0.6,0,1.1-0.2,1.5-0.7c0.3-0.4,0.9-0.4,1.3-0.1c0.4,0.3,0.4,0.9,0.1,1.3C28.8,31.9,27.8,32.4,26.7,32.4z"/>
<path class="st11" d="M8.8,53.5L12.2,64h6.5l-5.3-16C11.6,49.6,10,51.4,8.8,53.5z"/>
<path class="st11" d="M34.6,64h6.5l3.5-10.5c-1.2-2.1-2.8-4-4.7-5.5L34.6,64z"/>
</svg>
