<svg width="58" height="58" viewBox="0 0 58 58" fill="none" xmlns="http://www.w3.org/2000/svg">
<g clip-path="url(#clip0_260_1259)">
<path d="M10.1094 42.4272V45.151C10.1094 45.7578 10.6012 46.2496 11.208 46.2496H17.5116" stroke="white" stroke-width="1.64795" stroke-miterlimit="10" stroke-linecap="round" stroke-linejoin="round"/>
<path d="M40.4902 46.2496H46.7939C47.4006 46.2496 47.8925 45.7578 47.8925 45.151V42.4272" stroke="white" stroke-width="1.64795" stroke-miterlimit="10" stroke-linecap="round" stroke-linejoin="round"/>
<path d="M11.532 6.63867H3.34717C2.43706 6.63867 1.69922 7.37651 1.69922 8.28662V40.7792C1.69922 41.6893 2.43706 42.4272 3.34717 42.4272H19.8258" stroke="white" stroke-width="1.64795" stroke-miterlimit="10" stroke-linecap="round" stroke-linejoin="round"/>
<path d="M38.1745 42.4272H54.6531C55.5632 42.4272 56.301 41.6893 56.301 40.7792V8.28662C56.301 7.37651 55.5632 6.63867 54.6531 6.63867H15.377" stroke="white" stroke-width="1.64795" stroke-miterlimit="10" stroke-linecap="round" stroke-linejoin="round"/>
<path d="M51.008 37.7356H41.8423C41.539 37.7356 41.293 37.4896 41.293 37.1863V34.6108C41.293 34.3075 41.539 34.0615 41.8423 34.0615H51.008C51.3113 34.0615 51.5573 34.3075 51.5573 34.6108V37.1863C51.5573 37.4896 51.3113 37.7356 51.008 37.7356Z" stroke="white" stroke-width="1.64795" stroke-miterlimit="10" stroke-linecap="round" stroke-linejoin="round"/>
<path d="M37.1305 51.3611H40.1823C40.8956 51.3611 41.4637 50.7506 41.3972 50.0405C40.931 45.0588 37.8539 40.8933 33.6383 39.0988C32.2891 39.9291 30.701 40.4089 29.0006 40.4089C27.3001 40.4089 25.712 39.9291 24.3628 39.0988C20.1472 40.8933 17.0702 45.0588 16.6039 50.0405C16.5375 50.7506 17.1056 51.3611 17.8188 51.3611H33.2852" stroke="white" stroke-width="1.64795" stroke-miterlimit="10" stroke-linecap="round" stroke-linejoin="round"/>
<path d="M30.3998 43.9277H27.6009L26.0734 51.3612H31.9273L30.3998 43.9277Z" stroke="white" stroke-width="1.64795" stroke-miterlimit="10" stroke-linecap="round" stroke-linejoin="round"/>
<path d="M26.0822 39.9149L27.6009 43.927L30.3998 43.9277L31.9186 39.9149" stroke="white" stroke-width="1.64795" stroke-miterlimit="10" stroke-linecap="round" stroke-linejoin="round"/>
<path d="M20.5021 34.0617H7.36768C7.06434 34.0617 6.81836 34.3076 6.81836 34.611V37.1864C6.81836 37.4897 7.06434 37.7357 7.36768 37.7357H22.6597C21.6659 36.7178 20.9159 35.4622 20.5021 34.0617Z" stroke="white" stroke-width="1.64795" stroke-miterlimit="10" stroke-linecap="round" stroke-linejoin="round"/>
<path d="M21.489 26.8441C20.6339 28.2072 20.1377 29.8183 20.1377 31.5461C20.1377 36.4409 24.1057 40.4089 29.0005 40.4089C33.8952 40.4089 37.8633 36.4409 37.8633 31.5461C37.8633 26.6514 33.8952 22.6833 29.0005 22.6833C27.2257 22.6833 25.5743 23.2071 24.1881 24.1053" stroke="white" stroke-width="1.64795" stroke-miterlimit="10" stroke-linecap="round" stroke-linejoin="round"/>
<path d="M25.9891 30.4855V31.5921" stroke="white" stroke-width="1.64795" stroke-miterlimit="10" stroke-linecap="round" stroke-linejoin="round"/>
<path d="M32.0116 30.4855V31.5921" stroke="white" stroke-width="1.64795" stroke-miterlimit="10" stroke-linecap="round" stroke-linejoin="round"/>
<path d="M6.81836 10.6606V30.5271" stroke="white" stroke-width="1.64795" stroke-miterlimit="10" stroke-linecap="round" stroke-linejoin="round"/>
<path d="M28.4511 15.188H6.81836V11.5139H28.4511C28.7544 11.5139 29.0004 11.7599 29.0004 12.0632V14.6386C29.0004 14.942 28.7544 15.188 28.4511 15.188Z" stroke="white" stroke-width="1.64795" stroke-miterlimit="10" stroke-linecap="round" stroke-linejoin="round"/>
<path d="M19.9916 22.4309H6.81836V18.7568H19.9916C20.295 18.7568 20.5409 19.0028 20.5409 19.3062V21.8816C20.5409 22.185 20.295 22.4309 19.9916 22.4309Z" stroke="white" stroke-width="1.64795" stroke-miterlimit="10" stroke-linecap="round" stroke-linejoin="round"/>
<path d="M15.0478 29.674H6.81836V26H15.0478C15.3511 26 15.5971 26.246 15.5971 26.5493V29.1247C15.5971 29.4281 15.3511 29.674 15.0478 29.674Z" stroke="white" stroke-width="1.64795" stroke-miterlimit="10" stroke-linecap="round" stroke-linejoin="round"/>
<path d="M51.0075 15.1879H48.4321C48.1288 15.1879 47.8828 14.9419 47.8828 14.6386V12.0632C47.8828 11.7598 48.1288 11.5139 48.4321 11.5139H51.0075C51.3109 11.5139 51.5569 11.7598 51.5569 12.0632V14.6386C51.5569 14.9419 51.3109 15.1879 51.0075 15.1879Z" stroke="white" stroke-width="1.64795" stroke-miterlimit="10" stroke-linecap="round" stroke-linejoin="round"/>
<path d="M44.4177 15.188H41.8423C41.539 15.188 41.293 14.942 41.293 14.6386V12.0632C41.293 11.7599 41.539 11.5139 41.8423 11.5139H44.4177C44.721 11.5139 44.967 11.7599 44.967 12.0632V14.6386C44.967 14.942 44.7211 15.188 44.4177 15.188Z" stroke="white" stroke-width="1.64795" stroke-miterlimit="10" stroke-linecap="round" stroke-linejoin="round"/>
<path d="M41.293 18.7568H51.5573" stroke="white" stroke-width="1.64795" stroke-miterlimit="10" stroke-linecap="round" stroke-linejoin="round"/>
<path d="M41.293 22.1174H51.5573" stroke="white" stroke-width="1.64795" stroke-miterlimit="10" stroke-linecap="round" stroke-linejoin="round"/>
<path d="M41.293 29.8272H51.5573" stroke="white" stroke-width="1.64795" stroke-miterlimit="10" stroke-linecap="round" stroke-linejoin="round"/>
<path d="M42.1406 29.7146V27.0779" stroke="white" stroke-width="1.64795" stroke-miterlimit="10" stroke-linecap="round" stroke-linejoin="round"/>
<path d="M44.9971 29.7146V24.8806" stroke="white" stroke-width="1.64795" stroke-miterlimit="10" stroke-linecap="round" stroke-linejoin="round"/>
<path d="M47.8535 29.7146V27.6272" stroke="white" stroke-width="1.64795" stroke-miterlimit="10" stroke-linecap="round" stroke-linejoin="round"/>
<path d="M50.71 29.7146V24.8806" stroke="white" stroke-width="1.64795" stroke-miterlimit="10" stroke-linecap="round" stroke-linejoin="round"/>
</g>
<defs>
<clipPath id="clip0_260_1259">
<rect width="56.25" height="56.25" fill="white" transform="translate(0.875 0.875)"/>
</clipPath>
</defs>
</svg>
