<svg width="58" height="58" viewBox="0 0 58 58" fill="none" xmlns="http://www.w3.org/2000/svg">
<g clip-path="url(#clip0_260_1219)">
<path d="M42.9125 28.391V2.84814C42.9125 2.24137 42.4206 1.74951 41.8138 1.74951H2.79687C2.1901 1.74951 1.69824 2.24137 1.69824 2.84814V52.896C1.69824 53.5028 2.1901 53.9947 2.79687 53.9947H19.7708" stroke="white" stroke-width="1.64795" stroke-miterlimit="10" stroke-linecap="round" stroke-linejoin="round"/>
<path d="M23.6162 53.9947H30.3382" stroke="white" stroke-width="1.64795" stroke-miterlimit="10" stroke-linecap="round" stroke-linejoin="round"/>
<path d="M24.292 8.62451H31.23" stroke="white" stroke-width="1.64795" stroke-miterlimit="10" stroke-linecap="round" stroke-linejoin="round"/>
<path d="M6.23926 8.62451H12.3722" stroke="white" stroke-width="1.64795" stroke-miterlimit="10" stroke-linecap="round" stroke-linejoin="round"/>
<path d="M6.23914 12.0519H12.372" stroke="white" stroke-width="1.64795" stroke-miterlimit="10" stroke-linecap="round" stroke-linejoin="round"/>
<path d="M8.39844 23.0674V29.3553H12.3719V17.0177C12.3719 16.7711 12.172 16.5714 11.9256 16.5714H8.8447C8.59817 16.5714 8.39844 16.7713 8.39844 17.0177V19.2222" stroke="white" stroke-width="1.64795" stroke-miterlimit="10" stroke-linecap="round" stroke-linejoin="round"/>
<path d="M20.3191 9.07081V29.3553H16.3457V9.07081C16.3457 8.82427 16.5455 8.62454 16.792 8.62454H19.8728C20.1193 8.62454 20.3191 8.82427 20.3191 9.07081Z" stroke="white" stroke-width="1.64795" stroke-miterlimit="10" stroke-linecap="round" stroke-linejoin="round"/>
<path d="M28.2654 16.6722V29.3553H24.292V16.6722C24.292 16.4256 24.4918 16.2259 24.7383 16.2259H27.819C28.0656 16.2258 28.2654 16.4256 28.2654 16.6722Z" stroke="white" stroke-width="1.64795" stroke-miterlimit="10" stroke-linecap="round" stroke-linejoin="round"/>
<path d="M36.2117 27.6694V22.0276C36.2117 21.7811 36.0119 21.5813 35.7654 21.5813H32.6845C32.438 21.5813 32.2383 21.7812 32.2383 22.0276V28.7834" stroke="white" stroke-width="1.64795" stroke-miterlimit="10" stroke-linecap="round" stroke-linejoin="round"/>
<path d="M6.23914 29.3553H31.0868" stroke="white" stroke-width="1.64795" stroke-miterlimit="10" stroke-linecap="round" stroke-linejoin="round"/>
<path d="M34.2568 8.62451H36.2126" stroke="white" stroke-width="1.64795" stroke-miterlimit="10" stroke-linecap="round" stroke-linejoin="round"/>
<path d="M24.292 12.4251H36.2123" stroke="white" stroke-width="1.64795" stroke-miterlimit="10" stroke-linecap="round" stroke-linejoin="round"/>
<path d="M32.2383 16.2256H36.2117" stroke="white" stroke-width="1.64795" stroke-miterlimit="10" stroke-linecap="round" stroke-linejoin="round"/>
<path d="M51.8568 37.9267C50.1333 31.9345 44.6112 27.5505 38.0647 27.5505C30.1395 27.5505 23.7148 33.9752 23.7148 41.9004C23.7148 49.8256 30.1394 56.2504 38.0647 56.2504C44.6113 56.2504 50.1334 51.8665 51.8568 45.8744" stroke="white" stroke-width="1.64795" stroke-miterlimit="10" stroke-linecap="round" stroke-linejoin="round"/>
<path d="M12.3516 39.324H20.2472" stroke="white" stroke-width="1.64795" stroke-miterlimit="10" stroke-linecap="round" stroke-linejoin="round"/>
<path d="M6.23926 35.2026H20.2469" stroke="white" stroke-width="1.64795" stroke-miterlimit="10" stroke-linecap="round" stroke-linejoin="round"/>
<path d="M6.23914 39.3241H9.6182" stroke="white" stroke-width="1.64795" stroke-miterlimit="10" stroke-linecap="round" stroke-linejoin="round"/>
<path d="M6.23914 43.4455H20.2468" stroke="white" stroke-width="1.64795" stroke-miterlimit="10" stroke-linecap="round" stroke-linejoin="round"/>
<path d="M6.23914 47.5669H15.9857" stroke="white" stroke-width="1.64795" stroke-miterlimit="10" stroke-linecap="round" stroke-linejoin="round"/>
<path d="M49.0366 41.1662C48.6586 35.4352 43.8912 30.9036 38.0645 30.9036C31.9909 30.9036 27.0674 35.8272 27.0674 41.9008C27.0674 47.9743 31.991 52.898 38.0645 52.898C43.8912 52.898 48.6586 48.3663 49.0366 42.6353" stroke="white" stroke-width="1.64795" stroke-miterlimit="10" stroke-linecap="round" stroke-linejoin="round"/>
<path d="M50.749 38.2014L48.6133 41.9006L50.749 45.5998C50.8471 45.7698 51.0285 45.8745 51.2247 45.8745H54.9469C55.2502 45.8745 55.4962 45.6285 55.4962 45.3252V38.4761C55.4962 38.1727 55.2502 37.9268 54.9469 37.9268H51.2247C51.0285 37.9268 50.8471 38.0315 50.749 38.2014Z" stroke="white" stroke-width="1.64795" stroke-miterlimit="10" stroke-linecap="round" stroke-linejoin="round"/>
<path d="M30.7298 44.0514C31.6613 47.2224 34.5956 49.5451 38.064 49.5451C42.2791 49.5451 45.7084 46.1159 45.7084 41.9007C45.7084 37.6856 42.2791 34.2563 38.064 34.2563C34.4314 34.2563 31.3845 36.8042 30.6113 40.2062" stroke="white" stroke-width="1.64795" stroke-miterlimit="10" stroke-linecap="round" stroke-linejoin="round"/>
<path d="M38.065 46.1923C40.4352 46.1923 42.3566 44.2709 42.3566 41.9007C42.3566 39.5305 40.4352 37.6091 38.065 37.6091C35.6948 37.6091 33.7734 39.5305 33.7734 41.9007C33.7734 44.2709 35.6948 46.1923 38.065 46.1923Z" stroke="white" stroke-width="1.64795" stroke-miterlimit="10" stroke-linecap="round" stroke-linejoin="round"/>
<path d="M38.0648 42.8395C38.5832 42.8395 39.0035 42.4192 39.0035 41.9007C39.0035 41.3822 38.5832 40.9619 38.0648 40.9619C37.5463 40.9619 37.126 41.3822 37.126 41.9007C37.126 42.4192 37.5463 42.8395 38.0648 42.8395Z" stroke="white" stroke-width="1.64795" stroke-miterlimit="10" stroke-linecap="round" stroke-linejoin="round"/>
<path d="M38.1063 41.9007H56.3" stroke="white" stroke-width="1.64795" stroke-miterlimit="10" stroke-linecap="round" stroke-linejoin="round"/>
</g>
<defs>
<clipPath id="clip0_260_1219">
<rect width="56.25" height="56.25" fill="white" transform="translate(0.875 0.875)"/>
</clipPath>
</defs>
</svg>
