<svg width="58" height="58" viewBox="0 0 58 58" fill="none" xmlns="http://www.w3.org/2000/svg">
<g clip-path="url(#clip0_260_1121)">
<path d="M42.457 47.8217H49.6855" stroke="white" stroke-width="1.64795" stroke-miterlimit="10" stroke-linecap="round" stroke-linejoin="round"/>
<path d="M52.6369 44.9026V12.8517H1.69824V46.7229C1.69824 47.3297 2.1901 47.8216 2.79688 47.8216H38.6123" stroke="white" stroke-width="1.64795" stroke-miterlimit="10" stroke-linecap="round" stroke-linejoin="round"/>
<path d="M8.5647 6.4989H2.79688C2.1901 6.4989 1.69824 6.99076 1.69824 7.59753V12.8517H52.6369V7.59753C52.6369 6.99076 52.145 6.4989 51.5383 6.4989H12.4099" stroke="white" stroke-width="1.64795" stroke-miterlimit="10" stroke-linecap="round" stroke-linejoin="round"/>
<path d="M38.5945 31.263L41.6301 28.2273" stroke="white" stroke-width="1.64795" stroke-miterlimit="10" stroke-linecap="round" stroke-linejoin="round"/>
<path d="M44.4862 25.3708L47.4489 22.4081" stroke="white" stroke-width="1.64795" stroke-miterlimit="10" stroke-linecap="round" stroke-linejoin="round"/>
<path d="M47.4492 22.4081V24.8504" stroke="white" stroke-width="1.64795" stroke-miterlimit="10" stroke-linecap="round" stroke-linejoin="round"/>
<path d="M45.0068 22.4081H47.4491" stroke="white" stroke-width="1.64795" stroke-miterlimit="10" stroke-linecap="round" stroke-linejoin="round"/>
<path d="M44.9551 9.67532H49.2289" stroke="white" stroke-width="1.64795" stroke-miterlimit="10" stroke-linecap="round" stroke-linejoin="round"/>
<path d="M41.8368 9.67532H42.1833" stroke="white" stroke-width="1.64795" stroke-miterlimit="10" stroke-linecap="round" stroke-linejoin="round"/>
<path d="M38.9492 9.67532H39.2957" stroke="white" stroke-width="1.64795" stroke-miterlimit="10" stroke-linecap="round" stroke-linejoin="round"/>
<path d="M28.3203 28.8584V23.8441C28.3203 23.6527 28.1652 23.4976 27.9738 23.4976H25.5819C25.3905 23.4976 25.2354 23.6527 25.2354 23.8441V33.4231" stroke="white" stroke-width="1.64795" stroke-miterlimit="10" stroke-linecap="round" stroke-linejoin="round"/>
<path d="M19.0654 17.6742V33.4231H22.1504V17.6742C22.1504 17.4828 21.9953 17.3277 21.8039 17.3277H19.4119C19.2206 17.3277 19.0654 17.4828 19.0654 17.6742Z" stroke="white" stroke-width="1.64795" stroke-miterlimit="10" stroke-linecap="round" stroke-linejoin="round"/>
<path d="M12.8955 23.5758V33.4231H15.9805V23.5758C15.9805 23.3844 15.8253 23.2293 15.634 23.2293H13.242C13.0506 23.2293 12.8955 23.3844 12.8955 23.5758Z" stroke="white" stroke-width="1.64795" stroke-miterlimit="10" stroke-linecap="round" stroke-linejoin="round"/>
<path d="M6.72559 27.7338V33.4231H9.81055V27.7338C9.81055 27.5425 9.65542 27.3873 9.46404 27.3873H7.07209C6.88071 27.3873 6.72559 27.5425 6.72559 27.7338Z" stroke="white" stroke-width="1.64795" stroke-miterlimit="10" stroke-linecap="round" stroke-linejoin="round"/>
<path d="M8.24401 17.3277H6.72559" stroke="white" stroke-width="1.64795" stroke-miterlimit="10" stroke-linecap="round" stroke-linejoin="round"/>
<path d="M12.1124 17.3277H10.5939" stroke="white" stroke-width="1.64795" stroke-miterlimit="10" stroke-linecap="round" stroke-linejoin="round"/>
<path d="M15.9803 17.3277H14.4619" stroke="white" stroke-width="1.64795" stroke-miterlimit="10" stroke-linecap="round" stroke-linejoin="round"/>
<path d="M15.9805 20.2786H6.72559" stroke="white" stroke-width="1.64795" stroke-miterlimit="10" stroke-linecap="round" stroke-linejoin="round"/>
<path d="M9.81055 23.2294H6.72559" stroke="white" stroke-width="1.64795" stroke-miterlimit="10" stroke-linecap="round" stroke-linejoin="round"/>
<path d="M27.3511 33.4232H5.04883" stroke="white" stroke-width="1.64795" stroke-miterlimit="10" stroke-linecap="round" stroke-linejoin="round"/>
<path d="M55.6927 50.8932C54.8822 51.7036 53.5683 51.7036 52.7578 50.8932L46.3523 44.4877C46.1378 44.2731 46.1378 43.9254 46.3523 43.7108L48.5104 41.5528C48.7249 41.3382 49.0727 41.3382 49.2872 41.5528L55.6927 47.9583C56.5031 48.7686 56.5031 50.0827 55.6927 50.8932Z" stroke="white" stroke-width="1.64795" stroke-miterlimit="10" stroke-linecap="round" stroke-linejoin="round"/>
<path d="M37.3286 22.8037C31.9576 22.8037 27.6035 27.1578 27.6035 32.529C27.6035 34.9955 28.5222 37.2471 30.0354 38.9614C30.6901 38.6772 31.4794 38.8012 32.0146 39.3364C32.4588 39.7806 32.6198 40.4 32.4995 40.9721C33.9223 41.7877 35.571 42.254 37.3286 42.254C42.6996 42.254 47.0537 37.8999 47.0537 32.529C47.0537 27.158 42.6997 22.8037 37.3286 22.8037Z" stroke="white" stroke-width="1.64795" stroke-miterlimit="10" stroke-linecap="round" stroke-linejoin="round"/>
<path d="M31.3688 34.7128C32.259 37.1418 34.5916 38.875 37.329 38.875C40.8338 38.875 43.675 36.0338 43.675 32.5289C43.675 29.0241 40.8337 26.1829 37.329 26.1829C34.3991 26.1829 31.9345 28.1689 31.2041 30.8676" stroke="white" stroke-width="1.64795" stroke-miterlimit="10" stroke-linecap="round" stroke-linejoin="round"/>
<path d="M9.66895 40.6024H17.5234" stroke="white" stroke-width="1.64795" stroke-miterlimit="10" stroke-linecap="round" stroke-linejoin="round"/>
<path d="M21.1036 40.6024H28.9581" stroke="white" stroke-width="1.64795" stroke-miterlimit="10" stroke-linecap="round" stroke-linejoin="round"/>
<path d="M32.0145 39.3364L36.0625 33.7949" stroke="white" stroke-width="1.64795" stroke-miterlimit="10" stroke-linecap="round" stroke-linejoin="round"/>
<path d="M38.5946 31.263L41.8159 28.0416" stroke="white" stroke-width="1.64795" stroke-miterlimit="10" stroke-linecap="round" stroke-linejoin="round"/>
<path d="M40.4609 19.5517H47.4491" stroke="white" stroke-width="1.64795" stroke-miterlimit="10" stroke-linecap="round" stroke-linejoin="round"/>
<path d="M40.4688 16.6953H47.457" stroke="white" stroke-width="1.64795" stroke-miterlimit="10" stroke-linecap="round" stroke-linejoin="round"/>
<path d="M37.3284 34.3193C38.3172 34.3193 39.1188 33.5178 39.1188 32.529C39.1188 31.5402 38.3172 30.7386 37.3284 30.7386C36.3396 30.7386 35.5381 31.5402 35.5381 32.529C35.5381 33.5178 36.3396 34.3193 37.3284 34.3193Z" stroke="white" stroke-width="1.64795" stroke-miterlimit="10" stroke-linecap="round" stroke-linejoin="round"/>
<path d="M7.87822 42.3927C8.867 42.3927 9.66855 41.5911 9.66855 40.6023C9.66855 39.6136 8.867 38.812 7.87822 38.812C6.88945 38.812 6.08789 39.6136 6.08789 40.6023C6.08789 41.5911 6.88945 42.3927 7.87822 42.3927Z" stroke="white" stroke-width="1.64795" stroke-miterlimit="10" stroke-linecap="round" stroke-linejoin="round"/>
<path d="M19.3138 42.3928C20.3025 42.3928 21.1041 41.5912 21.1041 40.6025C21.1041 39.6137 20.3025 38.8121 19.3138 38.8121C18.325 38.8121 17.5234 39.6137 17.5234 40.6025C17.5234 41.5912 18.325 42.3928 19.3138 42.3928Z" stroke="white" stroke-width="1.64795" stroke-miterlimit="10" stroke-linecap="round" stroke-linejoin="round"/>
<path d="M30.7483 42.3928C31.7371 42.3928 32.5387 41.5912 32.5387 40.6025C32.5387 39.6137 31.7371 38.8121 30.7483 38.8121C29.7596 38.8121 28.958 39.6137 28.958 40.6025C28.958 41.5912 29.7596 42.3928 30.7483 42.3928Z" stroke="white" stroke-width="1.64795" stroke-miterlimit="10" stroke-linecap="round" stroke-linejoin="round"/>
<path d="M48.6462 41.4562L45.2959 38.106" stroke="white" stroke-width="1.64795" stroke-miterlimit="10" stroke-linecap="round" stroke-linejoin="round"/>
<path d="M42.9062 40.4965L46.2565 43.8467" stroke="white" stroke-width="1.64795" stroke-miterlimit="10" stroke-linecap="round" stroke-linejoin="round"/>
</g>
<defs>
<clipPath id="clip0_260_1121">
<rect width="56.25" height="56.25" fill="white" transform="translate(0.875 0.875)"/>
</clipPath>
</defs>
</svg>
