<svg width="58" height="58" viewBox="0 0 58 58" fill="none" xmlns="http://www.w3.org/2000/svg">
<g clip-path="url(#clip0_260_1172)">
<path d="M39.3506 33.376H50.9731C51.3838 33.376 51.7091 33.0282 51.6823 32.6184C51.4598 29.2078 49.7483 26.3319 47.3705 25.0215" stroke="white" stroke-width="1.64795" stroke-miterlimit="10" stroke-linecap="round" stroke-linejoin="round"/>
<path d="M41.5954 25.0216C40.3457 25.7103 39.2798 26.8308 38.5177 28.2351" stroke="white" stroke-width="1.64795" stroke-miterlimit="10" stroke-linecap="round" stroke-linejoin="round"/>
<path d="M19.481 28.2351C18.7189 26.8307 17.6531 25.7102 16.4033 25.0216" stroke="white" stroke-width="1.64795" stroke-miterlimit="10" stroke-linecap="round" stroke-linejoin="round"/>
<path d="M10.6278 25.0215C8.25002 26.3318 6.53846 29.2077 6.31599 32.6183C6.28929 33.0281 6.61449 33.3759 7.02515 33.3759H18.6478" stroke="white" stroke-width="1.64795" stroke-miterlimit="10" stroke-linecap="round" stroke-linejoin="round"/>
<path d="M2.79688 11.4757C2.1901 11.4757 1.69824 11.9676 1.69824 12.5743V16.485H7.68579V11.4757H2.79688Z" stroke="white" stroke-width="1.64795" stroke-miterlimit="10" stroke-linecap="round" stroke-linejoin="round"/>
<path d="M16.3527 16.4851H21.2671C21.1763 16.007 21.127 15.5141 21.127 15.0095C21.127 13.7383 21.4301 12.5386 21.9652 11.4756H15.1016" stroke="white" stroke-width="1.64795" stroke-miterlimit="10" stroke-linecap="round" stroke-linejoin="round"/>
<path d="M11.2563 11.4757H2.79688C2.1901 11.4757 1.69824 11.9676 1.69824 12.5744V16.4851H10.6788" stroke="white" stroke-width="1.64795" stroke-miterlimit="10" stroke-linecap="round" stroke-linejoin="round"/>
<path d="M55.2015 11.4757H36.0332C36.5682 12.5386 36.8713 13.7383 36.8713 15.0096C36.8713 15.5142 36.8219 16.0069 36.7313 16.4851H41.6457C42.4588 15.9457 43.4338 15.6308 44.4827 15.6308C45.5315 15.6308 46.5066 15.9457 47.3197 16.4851H56.3001V12.5743C56.3001 11.9676 55.8083 11.4757 55.2015 11.4757Z" stroke="white" stroke-width="1.64795" stroke-miterlimit="10" stroke-linecap="round" stroke-linejoin="round"/>
<path d="M44.4832 25.9093C47.3215 25.9093 49.6225 23.6084 49.6225 20.77C49.6225 17.9317 47.3215 15.6307 44.4832 15.6307C41.6448 15.6307 39.3439 17.9317 39.3439 20.77C39.3439 23.6084 41.6448 25.9093 44.4832 25.9093Z" stroke="white" stroke-width="1.64795" stroke-miterlimit="10" stroke-linecap="round" stroke-linejoin="round"/>
<path d="M13.5162 25.9093C16.3546 25.9093 18.6555 23.6084 18.6555 20.77C18.6555 17.9317 16.3546 15.6307 13.5162 15.6307C10.6779 15.6307 8.37695 17.9317 8.37695 20.77C8.37695 23.6084 10.6779 25.9093 13.5162 25.9093Z" stroke="white" stroke-width="1.64795" stroke-miterlimit="10" stroke-linecap="round" stroke-linejoin="round"/>
<path d="M24.6115 21.5458C21.0889 23.6297 18.6484 28.1424 18.6484 33.3759H39.3511C39.3511 28.1424 36.9106 23.6297 33.388 21.5458" stroke="white" stroke-width="1.64795" stroke-miterlimit="10" stroke-linecap="round" stroke-linejoin="round"/>
<path d="M28.9994 22.8819C33.3472 22.8819 36.8718 19.3574 36.8718 15.0096C36.8718 10.6618 33.3472 7.13721 28.9994 7.13721C24.6517 7.13721 21.1271 10.6618 21.1271 15.0096C21.1271 19.3574 24.6517 22.8819 28.9994 22.8819Z" stroke="white" stroke-width="1.64795" stroke-miterlimit="10" stroke-linecap="round" stroke-linejoin="round"/>
<path d="M31.6606 16.0684C31.6606 17.5376 30.4696 18.7287 29.0003 18.7287C27.5311 18.7287 26.34 17.5377 26.34 16.0684" stroke="white" stroke-width="1.64795" stroke-miterlimit="10" stroke-linecap="round" stroke-linejoin="round"/>
<path d="M26.2853 12.2136V13.2111" stroke="white" stroke-width="1.64795" stroke-miterlimit="10" stroke-linecap="round" stroke-linejoin="round"/>
<path d="M31.715 12.2136V13.2111" stroke="white" stroke-width="1.64795" stroke-miterlimit="10" stroke-linecap="round" stroke-linejoin="round"/>
<path d="M6.31445 46.6891H24.4947" stroke="white" stroke-width="1.64795" stroke-miterlimit="10" stroke-linecap="round" stroke-linejoin="round"/>
<path d="M8.25806 38.9272V46.6891" stroke="white" stroke-width="1.64795" stroke-miterlimit="10" stroke-linecap="round" stroke-linejoin="round"/>
<path d="M11.7286 43.6118V46.6891" stroke="white" stroke-width="1.64795" stroke-miterlimit="10" stroke-linecap="round" stroke-linejoin="round"/>
<path d="M15.2003 37.3496V46.6891" stroke="white" stroke-width="1.64795" stroke-miterlimit="10" stroke-linecap="round" stroke-linejoin="round"/>
<path d="M18.672 41.6343V46.6891" stroke="white" stroke-width="1.64795" stroke-miterlimit="10" stroke-linecap="round" stroke-linejoin="round"/>
<path d="M47.4566 46.6891H51.1349C51.4382 46.6891 51.6842 46.4431 51.6842 46.1398V37.4595C51.6842 37.1561 51.4382 36.9102 51.1349 36.9102H28.6022C28.2988 36.9102 28.0529 37.1561 28.0529 37.4595V46.1398C28.0529 46.4431 28.2988 46.6891 28.6022 46.6891H43.6114" stroke="white" stroke-width="1.64795" stroke-miterlimit="10" stroke-linecap="round" stroke-linejoin="round"/>
<path d="M48.6166 43.282H38.0693" stroke="white" stroke-width="1.64795" stroke-miterlimit="10" stroke-linecap="round" stroke-linejoin="round"/>
<path d="M38.0695 40.3176H48.6168" stroke="white" stroke-width="1.64795" stroke-miterlimit="10" stroke-linecap="round" stroke-linejoin="round"/>
<path d="M33.0274 43.7078C34.0812 43.7078 34.9355 42.8535 34.9355 41.7997C34.9355 40.7459 34.0812 39.8916 33.0274 39.8916C31.9735 39.8916 31.1193 40.7459 31.1193 41.7997C31.1193 42.8535 31.9735 43.7078 33.0274 43.7078Z" stroke="white" stroke-width="1.64795" stroke-miterlimit="10" stroke-linecap="round" stroke-linejoin="round"/>
<path d="M18.6719 37.3496H24.4946" stroke="white" stroke-width="1.64795" stroke-miterlimit="10" stroke-linecap="round" stroke-linejoin="round"/>
<path d="M21.6387 39.9863H24.4951" stroke="white" stroke-width="1.64795" stroke-miterlimit="10" stroke-linecap="round" stroke-linejoin="round"/>
<path d="M21.6387 42.623H24.4951" stroke="white" stroke-width="1.64795" stroke-miterlimit="10" stroke-linecap="round" stroke-linejoin="round"/>
<path d="M1.69922 16.3752V49.7642C1.69922 50.371 2.19108 50.8629 2.79785 50.8629H8.12622" stroke="white" stroke-width="1.64795" stroke-miterlimit="10" stroke-linecap="round" stroke-linejoin="round"/>
<path d="M11.9707 50.8627H55.2019C55.8087 50.8627 56.3005 50.3709 56.3005 49.7641V16.3751" stroke="white" stroke-width="1.64795" stroke-miterlimit="10" stroke-linecap="round" stroke-linejoin="round"/>
</g>
<defs>
<clipPath id="clip0_260_1172">
<rect width="56.25" height="56.25" fill="white" transform="translate(0.875 0.875)"/>
</clipPath>
</defs>
</svg>
