<svg width="58" height="58" viewBox="0 0 58 58" fill="none" xmlns="http://www.w3.org/2000/svg">
<g clip-path="url(#clip0_260_1317)">
<path d="M29.0004 54.3941C30.0572 54.3941 30.914 53.5373 30.914 52.4805C30.914 51.4236 30.0572 50.5669 29.0004 50.5669C27.9435 50.5669 27.0868 51.4236 27.0868 52.4805C27.0868 53.5373 27.9435 54.3941 29.0004 54.3941Z" stroke="white" stroke-width="1.64795" stroke-miterlimit="10" stroke-linecap="round" stroke-linejoin="round"/>
<path d="M29 50.5669V46.5574" stroke="white" stroke-width="1.64795" stroke-miterlimit="10" stroke-linecap="round" stroke-linejoin="round"/>
<path d="M15.6055 8.5812V3.60571" stroke="white" stroke-width="1.64795" stroke-miterlimit="10" stroke-linecap="round" stroke-linejoin="round"/>
<path d="M11.6418 8.5812H55.2026C55.8094 8.5812 56.3013 8.08934 56.3013 7.48257V4.70435C56.3013 4.09757 55.8094 3.60571 55.2026 3.60571H2.79785C2.19108 3.60571 1.69922 4.09757 1.69922 4.70435V7.48246C1.69922 8.08923 2.19108 8.58109 2.79785 8.58109H7.79663" stroke="white" stroke-width="1.64795" stroke-miterlimit="10" stroke-linecap="round" stroke-linejoin="round"/>
<path d="M49.8576 31.8222H8.14062V35.2668H49.8576V31.8222Z" stroke="white" stroke-width="1.64795" stroke-miterlimit="10" stroke-linecap="round" stroke-linejoin="round"/>
<path d="M18.4523 38.7113H49.8577V35.2668H8.14062V38.7113H14.6071" stroke="white" stroke-width="1.64795" stroke-miterlimit="10" stroke-linecap="round" stroke-linejoin="round"/>
<path d="M8.14062 38.7113V42.1558H49.8577V38.7113" stroke="white" stroke-width="1.64795" stroke-miterlimit="10" stroke-linecap="round" stroke-linejoin="round"/>
<path d="M39.6516 31.8222H8.14062V35.2668H39.6516V31.8222Z" stroke="white" stroke-width="1.64795" stroke-miterlimit="10" stroke-linecap="round" stroke-linejoin="round"/>
<path d="M39.6516 38.7113V35.2668H8.14062V38.7113" stroke="white" stroke-width="1.64795" stroke-miterlimit="10" stroke-linecap="round" stroke-linejoin="round"/>
<path d="M8.14062 38.7113V42.1558H39.6516V38.7113" stroke="white" stroke-width="1.64795" stroke-miterlimit="10" stroke-linecap="round" stroke-linejoin="round"/>
<path d="M28.1699 31.8222H8.14062V35.2668H28.1699V31.8222Z" stroke="white" stroke-width="1.64795" stroke-miterlimit="10" stroke-linecap="round" stroke-linejoin="round"/>
<path d="M28.1698 38.7113V35.2667" stroke="white" stroke-width="1.64795" stroke-miterlimit="10" stroke-linecap="round" stroke-linejoin="round"/>
<path d="M8.14062 38.7113V42.1558H28.1699V38.7113" stroke="white" stroke-width="1.64795" stroke-miterlimit="10" stroke-linecap="round" stroke-linejoin="round"/>
<path d="M15.6036 13.4681V20.9312" stroke="white" stroke-width="1.64795" stroke-miterlimit="10" stroke-linecap="round" stroke-linejoin="round"/>
<path d="M15.6037 28.3944C19.7255 28.3944 23.0669 25.053 23.0669 20.9312C23.0669 16.8095 19.7255 13.4681 15.6037 13.4681C11.482 13.4681 8.14062 16.8095 8.14062 20.9312C8.14062 25.053 11.482 28.3944 15.6037 28.3944Z" stroke="white" stroke-width="1.64795" stroke-miterlimit="10" stroke-linecap="round" stroke-linejoin="round"/>
<path d="M23.0669 20.9312H15.6036L20.8809 26.2085" stroke="white" stroke-width="1.64795" stroke-miterlimit="10" stroke-linecap="round" stroke-linejoin="round"/>
<path d="M30.6579 19.2835V28.3944H27.7236V19.2835C27.7236 19.1014 27.8712 18.9539 28.0532 18.9539H30.3283C30.5103 18.9539 30.6579 19.1014 30.6579 19.2835Z" stroke="white" stroke-width="1.64795" stroke-miterlimit="10" stroke-linecap="round" stroke-linejoin="round"/>
<path d="M36.526 13.415V28.3945H33.5918V13.415C33.5918 13.233 33.7393 13.0854 33.9214 13.0854H36.1964C36.3785 13.0854 36.526 13.233 36.526 13.415Z" stroke="white" stroke-width="1.64795" stroke-miterlimit="10" stroke-linecap="round" stroke-linejoin="round"/>
<path d="M42.3952 19.0283V28.3943H39.4609V19.0283C39.4609 18.8462 39.6085 18.6987 39.7905 18.6987H42.0656C42.2475 18.6987 42.3952 18.8462 42.3952 19.0283Z" stroke="white" stroke-width="1.64795" stroke-miterlimit="10" stroke-linecap="round" stroke-linejoin="round"/>
<path d="M48.2633 22.9831V28.3944H45.3291V22.9831C45.3291 22.801 45.4766 22.6535 45.6587 22.6535H47.9337C48.1158 22.6535 48.2633 22.801 48.2633 22.9831Z" stroke="white" stroke-width="1.64795" stroke-miterlimit="10" stroke-linecap="round" stroke-linejoin="round"/>
<path d="M39.4609 13.0854H48.2635" stroke="white" stroke-width="1.64795" stroke-miterlimit="10" stroke-linecap="round" stroke-linejoin="round"/>
<path d="M39.4609 15.892H48.2635" stroke="white" stroke-width="1.64795" stroke-miterlimit="10" stroke-linecap="round" stroke-linejoin="round"/>
<path d="M45.3291 18.6987H48.2632" stroke="white" stroke-width="1.64795" stroke-miterlimit="10" stroke-linecap="round" stroke-linejoin="round"/>
<path d="M26.1289 28.3944H49.8578" stroke="white" stroke-width="1.64795" stroke-miterlimit="10" stroke-linecap="round" stroke-linejoin="round"/>
<path d="M18.8926 16.7112L22.0826 13.5212C22.1856 13.4181 22.3253 13.3604 22.471 13.3604H27.0225" stroke="white" stroke-width="1.64795" stroke-miterlimit="10" stroke-linecap="round" stroke-linejoin="round"/>
<path d="M24.4961 15.8062H27.0229" stroke="white" stroke-width="1.64795" stroke-miterlimit="10" stroke-linecap="round" stroke-linejoin="round"/>
<path d="M49.2148 6.0542H53.2798" stroke="white" stroke-width="1.64795" stroke-miterlimit="10" stroke-linecap="round" stroke-linejoin="round"/>
<path d="M46.248 6.0542H46.5776" stroke="white" stroke-width="1.64795" stroke-miterlimit="10" stroke-linecap="round" stroke-linejoin="round"/>
<path d="M43.502 6.0542H43.8315" stroke="white" stroke-width="1.64795" stroke-miterlimit="10" stroke-linecap="round" stroke-linejoin="round"/>
<path d="M3.35742 8.5813V45.4588C3.35742 46.0655 3.84928 46.5574 4.45605 46.5574H40.8652" stroke="white" stroke-width="1.64795" stroke-miterlimit="10" stroke-linecap="round" stroke-linejoin="round"/>
<path d="M44.7109 46.5572H53.5444C54.1512 46.5572 54.643 46.0653 54.643 45.4585V8.58105" stroke="white" stroke-width="1.64795" stroke-miterlimit="10" stroke-linecap="round" stroke-linejoin="round"/>
</g>
<defs>
<clipPath id="clip0_260_1317">
<rect width="56.25" height="56.25" fill="white" transform="translate(0.875 0.875)"/>
</clipPath>
</defs>
</svg>
