<svg width="58" height="58" viewBox="0 0 58 58" fill="none" xmlns="http://www.w3.org/2000/svg">
<g clip-path="url(#clip0_260_1295)">
<path d="M49.2209 34.1563H45.3416C44.6019 34.1563 44 33.5544 44 32.8147V19.5603C44 18.8206 44.6019 18.2188 45.3416 18.2188H49.2209C49.9606 18.2188 50.5625 18.8206 50.5625 19.5603V32.8147C50.5625 33.5544 49.9606 34.1563 49.2209 34.1563ZM45.875 32.2813H48.6875V20.0938H45.875V32.2813Z" fill="white"/>
<path d="M40.7834 34.1562H36.9041C36.1644 34.1562 35.5625 33.5544 35.5625 32.8147V27.0603C35.5625 26.3206 36.1644 25.7188 36.9041 25.7188H40.7834C41.5231 25.7188 42.125 26.3206 42.125 27.0603V32.8147C42.125 33.5544 41.5231 34.1562 40.7834 34.1562ZM37.4375 32.2812H40.25V27.5938H37.4375V32.2812Z" fill="white"/>
<path d="M23.9084 34.1563H20.0291C19.2894 34.1563 18.6875 33.5544 18.6875 32.8147V29.8728C18.6875 29.1331 19.2894 28.5312 20.0291 28.5312H23.9084C24.6481 28.5312 25.25 29.1331 25.25 29.8728V32.8147C25.25 33.5544 24.6481 34.1563 23.9084 34.1563ZM20.5625 32.2813H23.375V30.4063H20.5625V32.2813Z" fill="white"/>
<path d="M32.3459 34.1563H28.4666C27.7269 34.1563 27.125 33.5544 27.125 32.8147V23.3103C27.125 22.5706 27.7269 21.9688 28.4666 21.9688H32.3459C33.0856 21.9688 33.6875 22.5706 33.6875 23.3103V32.8147C33.6875 33.5544 33.0856 34.1563 32.3459 34.1563ZM29 32.2813H31.8125V23.8438H29V32.2813Z" fill="white"/>
<path d="M19.6252 25.7187C19.3852 25.7187 19.1452 25.6268 18.9624 25.444C18.5959 25.0774 18.5959 24.4849 18.9624 24.1183L29.2749 13.8058C29.5909 13.4899 30.0859 13.4412 30.458 13.6887L38.1887 18.8421L46.0881 9.18771C46.4162 8.78553 47.0068 8.72834 47.4071 9.05553C47.8074 9.38365 47.8665 9.97334 47.5393 10.3746L39.1018 20.6871C38.7962 21.0612 38.258 21.1408 37.8559 20.8737L30.0577 15.6752L20.289 25.444C20.1052 25.6268 19.8652 25.7187 19.6252 25.7187Z" fill="white"/>
<path d="M46.8125 10.7188H42.125C41.6075 10.7188 41.1875 10.2988 41.1875 9.78125C41.1875 9.26375 41.6075 8.84375 42.125 8.84375H46.8125C47.33 8.84375 47.75 9.26375 47.75 9.78125C47.75 10.2988 47.33 10.7188 46.8125 10.7188Z" fill="white"/>
<path d="M46.8125 15.4063C46.295 15.4063 45.875 14.9863 45.875 14.4688V9.78125C45.875 9.26375 46.295 8.84375 46.8125 8.84375C47.33 8.84375 47.75 9.26375 47.75 9.78125V14.4688C47.75 14.9863 47.33 15.4063 46.8125 15.4063Z" fill="white"/>
<path d="M14.9375 30.4063H7.4375C6.92 30.4063 6.5 29.9863 6.5 29.4688C6.5 28.9513 6.92 28.5312 7.4375 28.5312H14.9375C15.455 28.5312 15.875 28.9513 15.875 29.4688C15.875 29.9863 15.455 30.4063 14.9375 30.4063Z" fill="white"/>
<path d="M11.1875 34.1563H7.4375C6.92 34.1563 6.5 33.7363 6.5 33.2188C6.5 32.7013 6.92 32.2812 7.4375 32.2812H11.1875C11.705 32.2812 12.125 32.7013 12.125 33.2188C12.125 33.7363 11.705 34.1563 11.1875 34.1563Z" fill="white"/>
<path d="M14.9375 21.0313H7.4375C6.92 21.0313 6.5 20.6113 6.5 20.0938C6.5 19.5763 6.92 19.1562 7.4375 19.1562H14.9375C15.455 19.1562 15.875 19.5763 15.875 20.0938C15.875 20.6113 15.455 21.0313 14.9375 21.0313Z" fill="white"/>
<path d="M11.1875 24.7813H7.4375C6.92 24.7813 6.5 24.3613 6.5 23.8438C6.5 23.3263 6.92 22.9062 7.4375 22.9062H11.1875C11.705 22.9062 12.125 23.3263 12.125 23.8438C12.125 24.3613 11.705 24.7813 11.1875 24.7813Z" fill="white"/>
<path d="M14.9375 11.6563H7.4375C6.92 11.6563 6.5 11.2363 6.5 10.7188C6.5 10.2013 6.92 9.78125 7.4375 9.78125H14.9375C15.455 9.78125 15.875 10.2013 15.875 10.7188C15.875 11.2363 15.455 11.6563 14.9375 11.6563Z" fill="white"/>
<path d="M11.1875 15.4063H7.4375C6.92 15.4063 6.5 14.9863 6.5 14.4688C6.5 13.9513 6.92 13.5312 7.4375 13.5312H11.1875C11.705 13.5312 12.125 13.9513 12.125 14.4688C12.125 14.9863 11.705 15.4063 11.1875 15.4063Z" fill="white"/>
<path d="M36.5 6.96875H21.5C20.9825 6.96875 20.5625 6.54875 20.5625 6.03125V2.28125C20.5625 1.76375 20.9825 1.34375 21.5 1.34375H36.5C37.0175 1.34375 37.4375 1.76375 37.4375 2.28125V6.03125C37.4375 6.54875 37.0175 6.96875 36.5 6.96875ZM22.4375 5.09375H35.5625V3.21875H22.4375V5.09375Z" fill="white"/>
<path d="M38.375 42.5938H19.625C19.1075 42.5938 18.6875 42.1738 18.6875 41.6563V37.9063C18.6875 37.3888 19.1075 36.9688 19.625 36.9688H38.375C38.8925 36.9688 39.3125 37.3888 39.3125 37.9063V41.6563C39.3125 42.1738 38.8925 42.5938 38.375 42.5938ZM20.5625 40.7188H37.4375V38.8438H20.5625V40.7188Z" fill="white"/>
<path d="M56.1875 40.7188H38.375C37.8575 40.7188 37.4375 40.2987 37.4375 39.7812V38.8438H20.5625V39.7812C20.5625 40.2987 20.1425 40.7188 19.625 40.7188H1.8125C1.295 40.7188 0.875 40.2987 0.875 39.7812V4.15625C0.875 3.63875 1.295 3.21875 1.8125 3.21875H21.5C22.0175 3.21875 22.4375 3.63875 22.4375 4.15625V5.09375H35.5625V4.15625C35.5625 3.63875 35.9825 3.21875 36.5 3.21875H56.1875C56.705 3.21875 57.125 3.63875 57.125 4.15625V39.7812C57.125 40.2987 56.705 40.7188 56.1875 40.7188ZM39.3125 38.8438H55.25V5.09375H37.4375V6.03125C37.4375 6.54875 37.0175 6.96875 36.5 6.96875H21.5C20.9825 6.96875 20.5625 6.54875 20.5625 6.03125V5.09375H2.75V38.8438H18.6875V37.9062C18.6875 37.3888 19.1075 36.9688 19.625 36.9688H38.375C38.8925 36.9688 39.3125 37.3888 39.3125 37.9062V38.8438Z" fill="white"/>
<path d="M29 49.1562C28.4825 49.1562 28.0625 48.7362 28.0625 48.2188V41.6562C28.0625 41.1388 28.4825 40.7188 29 40.7188C29.5175 40.7188 29.9375 41.1388 29.9375 41.6562V48.2188C29.9375 48.7362 29.5175 49.1562 29 49.1562Z" fill="white"/>
<path d="M29 56.6562C26.4153 56.6562 24.3125 54.5534 24.3125 51.9688C24.3125 49.3841 26.4153 47.2812 29 47.2812C31.5847 47.2812 33.6875 49.3841 33.6875 51.9688C33.6875 54.5534 31.5847 56.6562 29 56.6562ZM29 49.1562C27.4494 49.1562 26.1875 50.4181 26.1875 51.9688C26.1875 53.5194 27.4494 54.7812 29 54.7812C30.5506 54.7812 31.8125 53.5194 31.8125 51.9688C31.8125 50.4181 30.5506 49.1562 29 49.1562Z" fill="white"/>
</g>
<defs>
<clipPath id="clip0_260_1295">
<rect width="56.25" height="56.25" fill="white" transform="translate(0.875 0.875)"/>
</clipPath>
</defs>
</svg>
