<svg xmlns="http://www.w3.org/2000/svg" width="10" height="10" viewBox="0 0 10 10" fill="none">
<path fill-rule="evenodd" clip-rule="evenodd" d="M4.87695 0.3125C2.28945 0.3125 0.189453 2.41325 0.189453 5C0.189453 6.58475 0.976953 7.9865 2.1822 8.83475C2.4357 9.014 2.7867 8.9525 2.96595 8.699C3.14445 8.44475 3.0837 8.09375 2.82945 7.91525C1.9137 7.27025 1.31445 6.2045 1.31445 5C1.31445 3.0335 2.91045 1.4375 4.87695 1.4375C5.18745 1.4375 5.43945 1.1855 5.43945 0.875C5.43945 0.5645 5.18745 0.3125 4.87695 0.3125Z" fill="#008CD5"/>
<path fill-rule="evenodd" clip-rule="evenodd" d="M5.17829 9.67785C7.62479 9.52185 9.56429 7.4856 9.56429 5.0001C9.56429 3.5721 8.92379 2.29185 7.91504 1.4316C7.67879 1.2306 7.32329 1.25834 7.12229 1.49459C6.92054 1.73084 6.94904 2.08634 7.18529 2.28809C7.95254 2.94134 8.43929 3.9141 8.43929 5.0001C8.43929 6.88935 6.96554 8.4366 5.10629 8.5551C4.79654 8.57535 4.56104 8.84235 4.58129 9.1521C4.60079 9.4626 4.86854 9.6981 5.17829 9.67785Z" fill="#008CD5"/>
<path fill-rule="evenodd" clip-rule="evenodd" d="M9.24795 1.0625H7.12695C6.81645 1.0625 6.56445 1.3145 6.56445 1.625V3.746C6.56445 4.0565 6.81645 4.3085 7.12695 4.3085C7.43745 4.3085 7.68945 4.0565 7.68945 3.746V2.1875H9.24795C9.55845 2.1875 9.81045 1.9355 9.81045 1.625C9.81045 1.3145 9.55845 1.0625 9.24795 1.0625Z" fill="#008CD5"/>
<path fill-rule="evenodd" clip-rule="evenodd" d="M0.751953 9.31241H2.87295C3.18345 9.31241 3.43545 9.06041 3.43545 8.74991V6.62891C3.43545 6.31841 3.18345 6.06641 2.87295 6.06641C2.56245 6.06641 2.31045 6.31841 2.31045 6.62891V8.18741H0.751953C0.441453 8.18741 0.189453 8.43941 0.189453 8.74991C0.189453 9.06041 0.441453 9.31241 0.751953 9.31241Z" fill="#008CD5"/>
</svg>