<svg width="54" height="55" viewBox="0 0 54 55" fill="none" xmlns="http://www.w3.org/2000/svg">
<g clip-path="url(#clip0_4860_35771)">
<circle opacity="0.3" cx="27" cy="27.5" r="27" fill="#003855"/>
<path d="M29.9864 3.40329L7.33588 4.39223C5.96655 4.45202 4.90489 5.61014 4.96465 6.97889L6.81145 49.2775C6.87121 50.6463 8.02977 51.7075 9.3991 51.6477L42.0518 50.222C43.4211 50.1622 44.4828 49.0041 44.423 47.6354L42.9844 14.6859C42.9679 14.3066 42.8027 13.9491 42.5247 13.6905L32.4241 4.30041C31.7645 3.68709 30.8864 3.364 29.9864 3.40329Z" fill="#FEF0E8"/>
<path d="M29.9864 3.40378L7.33588 4.39272C5.96655 4.45251 4.90489 5.61063 4.96465 6.97938L6.81145 49.278C6.87121 50.6468 8.02977 51.708 9.3991 51.6482L42.0518 50.2225C43.4211 50.1627 44.4828 49.0046 44.423 47.6359L42.9844 14.6864C42.9679 14.3071 42.8027 13.9495 42.5247 13.691L32.4241 4.3009C31.7645 3.68758 30.8864 3.36449 29.9864 3.40378Z" fill="url(#paint0_linear_4860_35771)"/>
<path d="M32.5559 4.42313C32.5206 4.39049 32.4987 4.37015 32.4898 4.36176L32.4821 4.35458C31.8056 3.72606 30.9126 3.38653 29.9904 3.40446C29.9685 3.40428 29.946 3.40538 29.9239 3.40623L29.9122 3.40674C29.953 3.40507 29.9928 3.40459 30.0326 3.40672C30.0717 3.40775 30.1112 3.41161 30.1491 3.41553L30.1758 3.41995C30.2519 3.43052 30.3267 3.44696 30.3992 3.46897C30.4373 3.47984 30.4758 3.49365 30.5128 3.50878C30.685 3.57394 30.8418 3.67348 30.9758 3.79635C31.0867 3.8979 31.1813 4.01543 31.257 4.14631C31.2736 4.17212 31.2887 4.19949 31.3011 4.22833C31.3256 4.27488 31.3472 4.3228 31.3647 4.37239C31.3695 4.38471 31.3741 4.39579 31.3775 4.40817C31.4126 4.50733 31.4368 4.61255 31.4484 4.7198C31.4527 4.75595 31.4558 4.79216 31.4574 4.82854L31.7748 12.0992C31.7769 12.1468 31.7802 12.1926 31.7851 12.2387C31.7899 12.2832 31.7946 12.3278 31.8021 12.3722C31.8022 12.375 31.8024 12.3792 31.8039 12.3819C31.81 12.425 31.8175 12.468 31.8277 12.5095C31.835 12.5497 31.845 12.5885 31.8553 12.6272C31.8586 12.6396 31.862 12.6521 31.8652 12.6645C31.875 12.6977 31.885 12.7307 31.8961 12.7624C31.8963 12.7679 31.8979 12.7735 31.901 12.779C31.9106 12.808 31.9218 12.8369 31.9328 12.8658C31.9393 12.8865 31.9472 12.9071 31.9566 12.9276C31.9614 12.94 31.966 12.9524 31.9721 12.9633C31.9816 12.9909 31.9941 13.0183 32.0077 13.0443C32.0202 13.0745 32.0356 13.1046 32.0523 13.1346C32.0722 13.1743 32.0934 13.2126 32.1161 13.2493C32.1613 13.3243 32.2092 13.3963 32.2585 13.4655C32.2599 13.4669 32.26 13.4682 32.2613 13.4682C32.3401 13.5725 32.4269 13.6708 32.5189 13.7617C32.5496 13.7911 32.5817 13.8219 32.6137 13.8499C32.6471 13.8792 32.6806 13.9071 32.7139 13.9337L32.7255 13.9443L43.3777 23.7012L42.9841 14.6859C42.9676 14.3066 42.8024 13.949 42.5244 13.6905L32.5559 4.42313Z" fill="url(#paint1_linear_4860_35771)"/>
<path d="M42.8319 14.0999C42.8319 14.0999 42.7495 13.8957 42.4487 13.62C42.3369 13.5176 32.4838 4.35596 32.4838 4.35596C31.7862 3.70752 30.8575 3.36567 29.9056 3.40723C30.7272 3.37136 31.4223 4.00806 31.4582 4.82927L31.7756 12.0994C31.8354 13.4682 32.9939 14.5293 34.3632 14.4696L42.8319 14.0999Z" fill="#2A2A61"/>
<path d="M46.3091 21.1632C47.1801 20.5967 48.1033 20.1178 49.0539 19.6985C49.906 19.3227 50.7547 18.7467 51.5145 17.9869C53.8245 15.677 53.8628 13.1208 52.3099 11.5679C50.757 10.0149 48.2008 10.0533 45.8909 12.3633C45.1311 13.1231 44.5551 13.9717 44.1793 14.8238C43.7601 15.7745 43.2812 16.6977 42.7146 17.5686L42.7146 17.5687C41.9424 18.7559 40.7397 19.5971 39.3597 19.9152L37.6791 20.3027L39.2195 24.3881L43.5751 26.1988L43.9626 24.5181C44.2807 23.1381 45.122 21.9354 46.3091 21.1632Z" fill="#F96756"/>
<path d="M52.3099 11.5679C51.631 10.8891 50.7605 10.5143 49.8025 10.5005C50.0162 10.6414 50.2182 10.8053 50.4056 10.9927C51.977 12.5641 51.9535 15.1352 49.6435 17.4451C48.8837 18.2049 48.0334 18.7793 47.1785 19.1523C46.2247 19.5684 45.2989 20.0447 44.4261 20.6094C43.2364 21.3791 42.3974 22.584 42.0855 23.9703L41.5898 25.2795L43.575 26.1987L43.9625 24.5181C44.2807 23.1381 45.1219 21.9354 46.3091 21.1632C47.18 20.5967 48.1032 20.1178 49.0539 19.6985C49.906 19.3227 50.7546 18.7468 51.5144 17.987C53.8245 15.677 53.8629 13.1208 52.3099 11.5679Z" fill="#E55544"/>
<path d="M44.3515 32.6052L38.7323 24.9924L31.2726 19.5264L30.2382 20.5608C29.9206 20.8784 29.9206 21.3932 30.2382 21.7108L42.167 33.6397C42.4846 33.9573 42.9995 33.9573 43.3171 33.6397L44.3515 32.6052Z" fill="#2A2A61"/>
<path d="M45.0441 33.2983L30.5798 18.834C30.4114 18.6656 30.4114 18.3924 30.5798 18.224L31.5887 17.2151C32.4178 16.386 33.7621 16.386 34.5913 17.2151L46.663 29.2868C47.4921 30.116 47.4921 31.4603 46.663 32.2894L45.6541 33.2983C45.4856 33.4667 45.2125 33.4667 45.0441 33.2983Z" fill="#F96756"/>
<path d="M46.6631 29.2867L34.5914 17.215C33.9151 16.5386 32.896 16.4142 32.0933 16.8413C32.2746 16.9378 32.4449 17.0622 32.5977 17.215L44.8482 29.4655C45.6774 30.2947 45.6774 31.639 44.8482 32.4681L44.5313 32.7851L45.0443 33.298C45.2127 33.4665 45.4859 33.4665 45.6543 33.298L46.6632 32.2893C47.4922 31.4601 47.4922 30.1158 46.6631 29.2867Z" fill="#E55544"/>
<path d="M21 43.5C27.6274 43.5 33 38.1274 33 31.5C33 24.8726 27.6274 19.5 21 19.5C14.3726 19.5 9 24.8726 9 31.5C9 38.1274 14.3726 43.5 21 43.5Z" fill="#2A2A61"/>
<path d="M21 39.5C25.4183 39.5 29 35.9183 29 31.5C29 27.0817 25.4183 23.5 21 23.5C16.5817 23.5 13 27.0817 13 31.5C13 35.9183 16.5817 39.5 21 39.5Z" fill="#FFFCFA"/>
<path d="M23.0813 28.6887L23.0813 28.6888L19.5866 32.2203L18.4385 31.0601C17.9645 30.5811 17.194 30.5812 16.72 31.06C16.2488 31.536 16.2488 32.3058 16.7199 32.7818L18.7273 34.8103C18.9636 35.0491 19.2755 35.1695 19.5866 35.1695C19.8977 35.1695 20.2095 35.0492 20.4459 34.8103C20.4459 34.8102 20.4459 34.8102 20.446 34.8102L24.7998 30.4106C25.271 29.9346 25.2709 29.1648 24.7998 28.6888C24.3258 28.2098 23.5553 28.2099 23.0813 28.6887Z" fill="#F96756" stroke="#F96756"/>
</g>
<defs>
<linearGradient id="paint0_linear_4860_35771" x1="23.6622" y1="3.6799" x2="25.7254" y2="50.9353" gradientUnits="userSpaceOnUse">
<stop offset="0.263542" stop-color="#FEF0E8" stop-opacity="0"/>
<stop offset="1" stop-color="#D7C9AD" stop-opacity="0.5"/>
</linearGradient>
<linearGradient id="paint1_linear_4860_35771" x1="46.0212" y1="21.4461" x2="29.9575" y2="6.71918" gradientUnits="userSpaceOnUse">
<stop stop-color="#D7C9AD" stop-opacity="0"/>
<stop offset="1" stop-color="#D7C9AD"/>
</linearGradient>
<clipPath id="clip0_4860_35771">
<rect width="54" height="54" fill="white" transform="translate(0 0.5)"/>
</clipPath>
</defs>
</svg>
