<svg width="54" height="55" viewBox="0 0 54 55" fill="none" xmlns="http://www.w3.org/2000/svg">
<g clip-path="url(#clip0_4860_35765)">
<circle opacity="0.3" cx="27" cy="27.5" r="27" fill="#003855"/>
<path d="M27.9864 3.40329L5.33588 4.39223C3.96655 4.45202 2.90489 5.61014 2.96465 6.97889L4.81145 49.2775C4.87121 50.6463 6.02977 51.7075 7.3991 51.6477L40.0518 50.222C41.4211 50.1622 42.4828 49.0041 42.423 47.6354L40.9844 14.6859C40.9679 14.3066 40.8027 13.9491 40.5247 13.6905L30.4241 4.30041C29.7645 3.68709 28.8864 3.364 27.9864 3.40329Z" fill="#FEF0E8"/>
<path d="M30.5559 4.42313C30.5207 4.39049 30.4988 4.37015 30.4899 4.36176L30.4822 4.35458C29.8056 3.72606 28.9126 3.38653 27.9905 3.40446C27.9686 3.40428 27.9461 3.40538 27.924 3.40623L27.9123 3.40674C27.953 3.40507 27.9929 3.40459 28.0326 3.40672C28.0718 3.40775 28.1112 3.41161 28.1491 3.41553L28.1759 3.41995C28.252 3.43052 28.3268 3.44696 28.3992 3.46897C28.4374 3.47984 28.4758 3.49365 28.5129 3.50878C28.685 3.57394 28.8419 3.67348 28.9759 3.79635C29.0868 3.8979 29.1813 4.01543 29.257 4.14631C29.2737 4.17212 29.2888 4.19949 29.3012 4.22833C29.3257 4.27488 29.3472 4.3228 29.3648 4.37239C29.3695 4.38471 29.3741 4.39579 29.3775 4.40817C29.4126 4.50733 29.4368 4.61255 29.4484 4.7198C29.4528 4.75595 29.4558 4.79216 29.4574 4.82854L29.7749 12.0992C29.7769 12.1468 29.7803 12.1926 29.7852 12.2387C29.79 12.2832 29.7946 12.3278 29.8022 12.3722C29.8023 12.375 29.8025 12.3792 29.804 12.3819C29.81 12.425 29.8175 12.468 29.8278 12.5095C29.8351 12.5497 29.8451 12.5885 29.8553 12.6272C29.8586 12.6396 29.862 12.6521 29.8653 12.6645C29.8751 12.6977 29.885 12.7307 29.8961 12.7624C29.8964 12.7679 29.898 12.7735 29.9011 12.779C29.9106 12.808 29.9218 12.8369 29.9329 12.8658C29.9394 12.8865 29.9472 12.9071 29.9567 12.9276C29.9614 12.94 29.9661 12.9524 29.9721 12.9633C29.9816 12.9909 29.9941 13.0183 30.0078 13.0443C30.0203 13.0745 30.0356 13.1046 30.0523 13.1346C30.0723 13.1743 30.0934 13.2126 30.1161 13.2493C30.1613 13.3243 30.2093 13.3963 30.2585 13.4655C30.26 13.4669 30.26 13.4682 30.2614 13.4682C30.3401 13.5725 30.4269 13.6708 30.519 13.7617C30.5497 13.7911 30.5818 13.8219 30.6138 13.8499C30.6472 13.8792 30.6807 13.9071 30.714 13.9337L30.7256 13.9443L41.3778 23.7012L40.9842 14.6859C40.9676 14.3066 40.8025 13.949 40.5244 13.6905L30.5559 4.42313Z" fill="url(#paint0_linear_4860_35765)"/>
<path d="M40.8319 14.0999C40.8319 14.0999 40.7495 13.8957 40.4487 13.62C40.3369 13.5176 30.4838 4.35596 30.4838 4.35596C29.7862 3.70752 28.8575 3.36567 27.9056 3.40723C28.7272 3.37136 29.4223 4.00806 29.4582 4.82927L29.7756 12.0994C29.8354 13.4682 30.9939 14.5293 32.3632 14.4696L40.8319 14.0999Z" fill="#2A2A61"/>
<path d="M29.5687 18.7942L8.35191 19.7206C7.81929 19.7438 7.40636 20.1945 7.42962 20.7271C7.45287 21.2597 7.9035 21.6726 8.43613 21.6494L29.6529 20.723C30.1855 20.6998 30.5985 20.2492 30.5752 19.7165C30.5519 19.1839 30.1013 18.771 29.5687 18.7942Z" fill="#2A2A61"/>
<path d="M29.8213 24.5804L8.60454 25.5067C8.07191 25.53 7.65899 25.9806 7.68224 26.5132C7.7055 27.0459 8.15613 27.4588 8.68875 27.4355L29.9055 26.5092C30.4382 26.4859 30.8511 26.0353 30.8278 25.5027C30.8046 24.97 30.3539 24.5571 29.8213 24.5804Z" fill="#2A2A61"/>
<path d="M30.0739 30.3675L8.85716 31.2938C8.32454 31.3171 7.91161 31.7677 7.93487 32.3003C7.95812 32.833 8.40875 33.2459 8.94138 33.2226L30.1582 32.2963C30.6908 32.273 31.1037 31.8224 31.0804 31.2898C31.0572 30.7572 30.6066 30.3442 30.0739 30.3675Z" fill="#2A2A61"/>
<path d="M23.5758 36.4484L9.10985 37.08C8.57722 37.1032 8.1643 37.5538 8.18755 38.0865C8.21081 38.6191 8.66144 39.032 9.19406 39.0088L23.66 38.3772C24.1927 38.3539 24.6056 37.9033 24.5823 37.3707C24.5591 36.838 24.1085 36.4251 23.5758 36.4484Z" fill="#F96756"/>
<g clip-path="url(#clip1_4860_35765)">
<path d="M33.5094 42.9261L32.7714 42.4894C32.0142 43.769 31.7047 44.6516 31.5907 45.2309C31.4986 45.6992 32.0466 46.0235 32.4128 45.7173C32.8657 45.3386 33.4902 44.6425 34.2474 43.3628L33.5094 42.9261Z" fill="url(#paint1_linear_4860_35765)"/>
<path d="M51.9173 15.9347L48.3078 13.7989L48.7356 13.0758C49.1066 12.4488 49.9156 12.2413 50.5425 12.6123L51.8817 13.4047C52.5087 13.7757 52.7162 14.5847 52.3452 15.2116L51.9173 15.9347Z" fill="#F96756"/>
<path d="M48.7414 13.3055C48.0578 13.236 47.3961 13.5701 47.0463 14.1614L35.1771 34.2202C32.9613 37.9648 32.2358 41.4486 32.0046 43.5585C31.9044 44.472 32.9263 45.0766 33.6788 44.5492C35.4169 43.3309 38.1214 41.0181 40.3371 37.2735L52.2064 17.2148C52.5564 16.6235 52.5307 15.8828 52.1408 15.317C51.3574 14.1805 50.1147 13.4451 48.7414 13.3055Z" fill="url(#paint2_linear_4860_35765)"/>
<path d="M38.2817 28.9736L43.4419 32.027L42.972 32.8212L37.8118 29.7678L38.2817 28.9736Z" fill="url(#paint3_linear_4860_35765)"/>
<path d="M43.0501 32.6896L37.89 29.6363L38.203 29.1074L43.363 32.1607L43.0501 32.6896Z" fill="url(#paint4_linear_4860_35765)"/>
<path d="M51.5516 18.3221L50.9234 15.8729C50.9 15.6833 50.7935 15.5049 50.614 15.3988L49.4052 14.6835C49.0742 14.4876 48.6463 14.625 48.4912 14.977L46.5353 19.4163C45.8448 20.9837 44.9354 22.445 43.8341 23.7567L42.5808 25.2496C42.1698 25.7391 42.0483 26.3923 42.2258 26.9803L43.4966 31.9348L51.5516 18.3221Z" fill="url(#paint5_linear_4860_35765)"/>
<path d="M45.3424 24.6492C45.9621 23.0526 46.8053 21.5519 47.8467 20.1922L50.7966 16.341C51.0305 16.0356 50.945 15.5945 50.614 15.3986L49.4051 14.6833C49.0741 14.4874 48.6463 14.6248 48.4912 14.9768L46.5353 19.4162C45.8447 20.9835 44.9353 22.4449 43.834 23.7566L42.5807 25.2494C42.0816 25.8439 42.0084 26.6801 42.3807 27.3476C42.4317 27.4391 42.5063 27.5156 42.5964 27.5689C42.6865 27.6223 42.7895 27.6508 42.8942 27.6515C43.6585 27.6566 44.3562 27.1899 44.6371 26.4662L45.3424 24.6492Z" fill="#2A2A61"/>
</g>
</g>
<defs>
<linearGradient id="paint0_linear_4860_35765" x1="44.0213" y1="21.4461" x2="27.9576" y2="6.71918" gradientUnits="userSpaceOnUse">
<stop stop-color="#D7C9AD" stop-opacity="0"/>
<stop offset="1" stop-color="#D7C9AD"/>
</linearGradient>
<linearGradient id="paint1_linear_4860_35765" x1="32.1373" y1="44.0304" x2="34.1513" y2="45.2221" gradientUnits="userSpaceOnUse">
<stop stop-color="#4D4D4D"/>
<stop offset="1" stop-color="#333333"/>
</linearGradient>
<linearGradient id="paint2_linear_4860_35765" x1="41.0457" y1="28.9429" x2="44.6767" y2="31.0915" gradientUnits="userSpaceOnUse">
<stop stop-color="#E6E6E6"/>
<stop offset="1" stop-color="#999999"/>
</linearGradient>
<linearGradient id="paint3_linear_4860_35765" x1="43.5293" y1="32.6153" x2="37.7467" y2="29.1936" gradientUnits="userSpaceOnUse">
<stop stop-color="#E6E6E6"/>
<stop offset="1" stop-color="#999999"/>
</linearGradient>
<linearGradient id="paint4_linear_4860_35765" x1="37.7234" y1="29.1811" x2="43.5066" y2="32.6031" gradientUnits="userSpaceOnUse">
<stop stop-color="#E6E6E6"/>
<stop offset="1" stop-color="#999999"/>
</linearGradient>
<linearGradient id="paint5_linear_4860_35765" x1="49.7269" y1="26.2933" x2="45.3611" y2="21.9805" gradientUnits="userSpaceOnUse">
<stop stop-color="#B3B3B3" stop-opacity="0"/>
<stop offset="1" stop-color="#999999"/>
</linearGradient>
<clipPath id="clip0_4860_35765">
<rect width="54" height="54" fill="white" transform="translate(0 0.5)"/>
</clipPath>
<clipPath id="clip1_4860_35765">
<rect width="28" height="28" fill="white" transform="translate(24.7646 18.8257) rotate(-14.3862)"/>
</clipPath>
</defs>
</svg>
