<svg width="103" height="92" viewBox="0 0 103 92" fill="none" xmlns="http://www.w3.org/2000/svg">
<circle cx="55.4765" cy="45.5898" r="42.5546" fill="#FEECE9"/>
<path d="M62.0894 35.5508L102.003 46.8149L97.8406 91.1365L50.0907 79.1378L62.0894 35.5508Z" fill="#17282F"/>
<path d="M101.757 46.5712L59.8844 35.7969C57.8438 38.7353 52.5873 46.3263 47.8857 53.1827C43.1842 60.0391 34.9892 68.4464 31.4794 71.7929L80.4536 86.2403C81.3515 85.7506 85.1551 82.1755 93.1869 71.7929C101.219 61.4104 102.247 50.6524 101.757 46.5712Z" fill="#F3F3F3" stroke="#17282F" stroke-width="0.818293"/>
<circle cx="63.5575" cy="47.3047" r="1.95897" fill="#17282F"/>
<circle cx="57.6805" cy="57.5879" r="1.95897" fill="#17282F"/>
<circle cx="51.8055" cy="66.8945" r="1.95897" fill="#17282F"/>
<rect x="62.6865" y="59.2812" width="23.5076" height="0.979485" rx="0.489742" transform="rotate(15.5 62.6865 59.2812)" fill="#17282F"/>
<rect x="57.5594" y="69.2051" width="21.2777" height="0.979485" rx="0.489742" transform="rotate(15.5 57.5594 69.2051)" fill="#17282F"/>
<rect x="69.1395" y="48.7969" width="23.5076" height="0.979485" rx="0.489742" transform="rotate(14.5 69.1395 48.7969)" fill="#17282F"/>
<circle cx="24.1995" cy="25.0639" r="17.7059" transform="rotate(25.8347 24.1995 25.0639)" fill="#F3F3F3" stroke="#17282F" stroke-width="0.818293"/>
<rect width="9.79485" height="1.46923" transform="matrix(1 0 0 -1 18.5664 30.207)" fill="#17282F"/>
<circle cx="13.9143" cy="22.1252" r="2.69358" fill="#17282F"/>
<circle cx="33.0139" cy="22.1252" r="2.69358" fill="#17282F"/>
</svg>
