<svg width="54" height="55" viewBox="0 0 54 55" fill="none" xmlns="http://www.w3.org/2000/svg">
<g clip-path="url(#clip0_4860_35762)">
<circle opacity="0.3" cx="27" cy="27.5" r="27" fill="#003855"/>
<g clip-path="url(#clip1_4860_35762)">
<path d="M5.22021 5.37695L2.41984 42.2201C2.32921 43.4118 3.22289 44.4523 4.41449 44.543L41.2576 47.3433C42.4493 47.434 43.4899 46.5403 43.5805 45.3487L46.3809 8.50558C46.4715 7.31388 45.5778 6.2733 44.3862 6.18267L7.54311 3.3823C6.35142 3.29167 5.31075 4.18525 5.22021 5.37695Z" fill="#F96756"/>
<path d="M5.05245 8.31246V45.2618C5.05245 46.4569 6.0224 47.4268 7.21745 47.4268H44.1668C45.3619 47.4268 46.3318 46.4569 46.3318 45.2618V8.31246C46.3318 7.11732 45.3618 6.14746 44.1668 6.14746H7.21745C6.0223 6.14737 5.05245 7.11741 5.05245 8.31246Z" fill="#2A2A61"/>
<path d="M18.861 49.3682L46.9973 47.2513C48.1897 47.1615 49.0835 46.1223 48.9938 44.9299L46.2219 8.08469C46.1321 6.89233 45.0928 5.99856 43.9005 6.08823L7.05516 8.86018C5.86279 8.94995 4.96902 9.98919 5.0586 11.1816L7.21795 39.883C7.24284 40.2134 7.39663 40.5207 7.64613 40.7386L16.7107 48.6524C17.303 49.1692 18.0774 49.427 18.861 49.3682Z" fill="#FEF0E8"/>
<path d="M21.8684 31.5C21.8684 31.5 40.6061 25.3228 41.8397 19.1032C43.8658 8.88793 26.2422 6.32988 14.663 13.8214C7.47272 18.4734 6.46979 29.7569 27.2725 27.2572" stroke="url(#paint0_linear_4860_35762)" stroke-linecap="round"/>
<path d="M19.2141 16.5568L18.8451 17.1469C18.7688 17.2428 18.6623 17.2923 18.5885 17.3007C18.3302 17.3301 18.115 17.0805 18.0856 16.8221C18.0646 16.6377 18.1392 16.4174 18.2865 16.2885L19.4258 14.913C19.5021 14.8172 19.5948 14.7568 19.7425 14.74C20.0131 14.7092 20.3387 14.8341 20.3695 15.1047L21.2957 23.2469C21.3278 23.5297 21.0126 23.7151 20.6927 23.7515C20.3607 23.7892 20.0241 23.678 19.9919 23.3952L19.2141 16.5568Z" fill="#F96756"/>
<path d="M22.8933 20.8585L22.4862 17.2794C22.2595 15.2869 23.3672 14.4009 24.9292 14.2232C26.4789 14.047 27.7819 14.6587 28.0085 16.6512L28.4157 20.2303C28.6423 22.2228 27.51 23.1115 25.9604 23.2878C24.3983 23.4655 23.12 22.851 22.8933 20.8585ZM26.7049 16.7996C26.5817 15.7172 25.9709 15.2759 25.0608 15.3794C24.1383 15.4843 23.6668 16.0487 23.7899 17.1311L24.1971 20.7102C24.3202 21.7926 24.9064 22.2367 25.8288 22.1318C26.739 22.0282 27.2351 21.461 27.112 20.3786L26.7049 16.7996Z" fill="#F96756"/>
<path d="M29.0501 20.1583L28.643 16.5792C28.4163 14.5867 29.524 13.7007 31.086 13.523C32.6357 13.3468 33.9387 13.9585 34.1653 15.951L34.5725 19.5301C34.7991 21.5226 33.6668 22.4113 32.1171 22.5876C30.5551 22.7653 29.2768 22.1508 29.0501 20.1583ZM32.8617 16.0994C32.7385 15.017 32.1277 14.5757 31.2176 14.6792C30.2951 14.7841 29.8236 15.3486 29.9467 16.4309L30.3539 20.01C30.477 21.0924 31.0632 21.5365 31.9856 21.4316C32.8958 21.328 33.3919 20.7608 33.2688 19.6784L32.8617 16.0994Z" fill="#F96756"/>
<path d="M16.7111 48.6527L10.5 43.2031L48.5 40.5L48.9938 44.9303C49.0807 46.0847 48.244 47.0968 47.1082 47.2404C47.0716 47.245 47.0346 47.2487 46.9972 47.2515L18.861 49.3682C18.0775 49.4273 17.3031 49.1694 16.7111 48.6527Z" fill="url(#paint1_linear_4860_35762)"/>
<path d="M7.36733 40.39C7.36733 40.39 7.44465 40.5659 7.71473 40.7982C7.81503 40.8845 16.6576 48.6056 16.6576 48.6056C17.2837 49.1522 18.1027 49.4248 18.9315 49.3624C18.2161 49.4162 17.5925 48.8799 17.5388 48.1645L17.0623 41.8318C16.9726 40.6394 15.9333 39.7456 14.741 39.8353L7.36733 40.39Z" fill="#F96756"/>
</g>
<path d="M40.846 53.5177L53.437 40.9268C54.1876 40.1761 54.1876 38.959 53.437 38.2083L43.8835 28.6548C43.1328 27.9041 41.9157 27.9041 41.1651 28.6548L26.563 43.2569C25.8123 44.0076 25.8123 45.2247 26.563 45.9753L34.1054 53.5177C34.4596 53.8719 34.9401 54.0709 35.4409 54.0709H39.5105C40.0114 54.0709 40.4918 53.8719 40.846 53.5177Z" fill="url(#paint2_linear_4860_35762)"/>
<path d="M32.5004 37.3193L30.5884 39.2313V50.0007L34.1053 53.5176C34.4595 53.8718 34.9399 54.0708 35.4408 54.0708H39.5103C40.0113 54.0708 40.4917 53.8718 40.8458 53.5176L44.7721 49.5913L32.5004 37.3193Z" fill="url(#paint3_linear_4860_35762)"/>
<path d="M53.2409 41.5635L43.4584 51.346C43.2285 51.5759 42.8557 51.5759 42.6257 51.346L30.746 39.4663C30.5161 39.2364 30.5161 38.8635 30.746 38.6336L40.5284 28.8511C40.7583 28.6212 41.1312 28.6212 41.3611 28.8511L53.2408 40.7309C53.4708 40.9608 53.4708 41.3336 53.2409 41.5635Z" fill="#2A2A61"/>
<path d="M32.7088 36.6709L30.746 38.6336C30.5161 38.8635 30.5161 39.2364 30.746 39.4663L42.6257 51.346C42.8557 51.5759 43.2285 51.5759 43.4584 51.346L45.4212 49.3833L32.7088 36.6709Z" fill="#2A2A61"/>
<path d="M27.6674 42.1533L26.563 43.2577C25.8123 44.0084 25.8123 45.2255 26.563 45.9761L34.1054 53.5185C34.4596 53.8727 34.9401 54.0717 35.4409 54.0717H39.5105C39.535 54.0717 39.5594 54.0708 39.5839 54.0699L27.6674 42.1533Z" fill="url(#paint4_linear_4860_35762)"/>
<path d="M44.8033 44.2345L38.2655 37.6967C37.9115 37.3427 37.9115 36.7688 38.2655 36.4148L40.9148 33.7655C41.2688 33.4115 41.8427 33.4115 42.1967 33.7655L48.7345 40.3033C49.0885 40.6573 49.0885 41.2312 48.7345 41.5852L46.0852 44.2345C45.7312 44.5885 45.1573 44.5885 44.8033 44.2345Z" fill="#F96756"/>
<path d="M45.1995 54.908H33.2627C33.02 54.908 32.8233 54.7113 32.8233 54.4687C32.8233 54.226 33.02 54.0293 33.2627 54.0293H45.1995C45.4422 54.0293 45.6389 54.226 45.6389 54.4687C45.6389 54.7113 45.4421 54.908 45.1995 54.908Z" fill="#2A2A61"/>
</g>
<defs>
<linearGradient id="paint0_linear_4860_35762" x1="37.1712" y1="9.08257" x2="20.5704" y2="34.7951" gradientUnits="userSpaceOnUse">
<stop stop-color="#2A2A61"/>
<stop offset="1" stop-color="#2A2A61" stop-opacity="0.7"/>
</linearGradient>
<linearGradient id="paint1_linear_4860_35762" x1="30" y1="42" x2="31.258" y2="49.2267" gradientUnits="userSpaceOnUse">
<stop offset="0.233484" stop-color="#D7C9AD" stop-opacity="0"/>
<stop offset="0.997917" stop-color="#D7C9AD"/>
</linearGradient>
<linearGradient id="paint2_linear_4860_35762" x1="38.6015" y1="40.6939" x2="48.2437" y2="50.3356" gradientUnits="userSpaceOnUse">
<stop stop-color="#FBFBFB"/>
<stop offset="1" stop-color="#C1C1C1"/>
</linearGradient>
<linearGradient id="paint3_linear_4860_35762" x1="34.0436" y1="48.048" x2="39.0758" y2="43.0158" gradientUnits="userSpaceOnUse">
<stop stop-color="#D3B4A0" stop-opacity="0"/>
<stop offset="1" stop-color="#D3B4A0"/>
</linearGradient>
<linearGradient id="paint4_linear_4860_35762" x1="32.4175" y1="49.3198" x2="29.5511" y2="52.1862" gradientUnits="userSpaceOnUse">
<stop stop-color="#D3B4A0" stop-opacity="0"/>
<stop offset="0.617708" stop-color="#D3B4A0"/>
</linearGradient>
<clipPath id="clip0_4860_35762">
<rect width="54" height="54" fill="white" transform="translate(0 0.5)"/>
</clipPath>
<clipPath id="clip1_4860_35762">
<rect width="49" height="49" fill="white" transform="matrix(-1 0 0 1 49 0.5)"/>
</clipPath>
</defs>
</svg>
