<svg width="232" height="111" viewBox="0 0 232 111" fill="none" xmlns="http://www.w3.org/2000/svg">
<path d="M89.2094 68.4256L90.7384 66.0803C91.0843 65.5611 91.7942 65.382 92.3403 65.7222C94.6339 67.1544 97.692 67.9601 100.732 67.9601C104.118 67.9601 106.047 66.9038 106.047 65.0061C106.047 63.162 104.336 62.2669 100.259 61.8372C93.3415 61.2106 89.4278 58.364 89.4278 53.8165C89.4278 49.0722 94.0332 45.8496 100.896 45.8496C104.464 45.8496 107.667 46.6374 110.398 48.2307C110.962 48.553 111.144 49.2691 110.798 49.8062L109.36 52.1157C109.051 52.6349 108.377 52.814 107.831 52.5275C105.738 51.4175 103.535 50.8446 101.151 50.8446C97.3462 50.8446 95.3074 51.9009 95.3074 53.7986C95.3074 55.4815 96.8547 56.3767 100.714 56.8064C108.541 57.6478 111.963 60.1364 111.963 65.024C111.963 69.8757 107.413 73.152 100.55 73.152C96.4906 73.152 92.8318 72.0957 89.537 69.9474C89.0273 69.6609 88.8635 68.9627 89.2094 68.4256Z" fill="black"/>
<path d="M118.498 46.5117H122.194C122.831 46.5117 123.34 47.013 123.34 47.6396V71.433C123.34 72.0596 122.831 72.5609 122.194 72.5609H118.498C117.861 72.5609 117.352 72.0596 117.352 71.433V47.6575C117.352 47.0309 117.861 46.5117 118.498 46.5117Z" fill="black"/>
<path d="M129.366 68.4256L130.895 66.0803C131.241 65.5611 131.95 65.382 132.497 65.7222C134.79 67.1544 137.848 67.9601 140.888 67.9601C144.274 67.9601 146.204 66.9038 146.204 65.0061C146.204 63.162 144.492 62.2669 140.415 61.8372C133.498 61.2106 129.584 58.364 129.584 53.8165C129.584 49.0722 134.189 45.8496 141.052 45.8496C144.62 45.8496 147.824 46.6374 150.554 48.2307C151.118 48.553 151.3 49.2691 150.955 49.8062L149.516 52.1157C149.207 52.6349 148.534 52.814 147.987 52.5275C145.894 51.4175 143.691 50.8446 141.307 50.8446C137.502 50.8446 135.464 51.9009 135.464 53.7986C135.464 55.4815 137.011 56.3767 140.87 56.8064C148.697 57.6478 152.12 60.1364 152.12 65.024C152.12 69.8757 147.569 73.152 140.706 73.152C136.647 73.152 132.988 72.0957 129.693 69.9474C129.184 69.6609 129.02 68.9627 129.366 68.4256Z" fill="black"/>
<path d="M182.228 48.1051L171.997 71.8805C171.815 72.2923 171.397 72.5788 170.942 72.5788H166.045C165.59 72.5788 165.171 72.3102 164.989 71.8805L154.723 48.1051C154.395 47.3531 154.959 46.5296 155.778 46.5296H159.801C160.275 46.5296 160.693 46.816 160.875 47.2278L164.279 55.4275L168.521 66.438L172.817 55.4275L176.22 47.2278C176.403 46.7981 176.821 46.5296 177.294 46.5296H181.208C181.991 46.5117 182.555 47.3531 182.228 48.1051Z" fill="black"/>
<path d="M210.934 47.6585V71.434C210.934 72.0606 210.425 72.5619 209.787 72.5619H206.729C206.092 72.5619 205.583 72.0606 205.583 71.434L205.546 69.0707C203.507 71.5951 199.976 73.1348 195.899 73.1348C188.126 73.1348 182.756 67.549 182.756 59.5283C182.756 51.5077 188.126 45.9219 195.899 45.9219C200.031 45.9219 203.507 47.4437 205.546 49.9859L205.583 47.6227C205.601 46.9961 206.11 46.4948 206.729 46.4948H209.787C210.425 46.5127 210.934 47.0319 210.934 47.6585ZM204.927 59.5462C204.927 54.6945 201.596 51.3287 196.827 51.3287C192.058 51.3287 188.726 54.6945 188.726 59.5462C188.726 64.398 192.058 67.7638 196.827 67.7638C201.596 67.7638 204.927 64.398 204.927 59.5462Z" fill="black"/>
<path d="M77.1224 60.6386C77.1224 66.2244 74.938 71.8102 70.6057 76.0712L54.8418 91.5037C59.1923 87.2428 61.3767 81.657 61.3767 76.0712C61.3767 70.4854 59.1923 64.8996 54.8418 60.6386C59.1923 56.3776 61.3767 50.7918 61.3767 45.206C61.3767 39.6202 59.1923 34.0344 54.8418 29.7734L70.6057 45.206C74.9563 49.467 77.1224 55.0528 77.1224 60.6386Z" fill="url(#paint0_linear_5923_43021)"/>
<path d="M61.3767 45.2051C61.3767 50.7909 59.1923 56.3767 54.8417 60.6377L39.096 45.2051L31.2141 37.4888C26.8635 33.2279 26.8635 26.3172 31.2141 22.0562C33.3803 19.9258 36.2381 18.8516 39.096 18.8516C41.9539 18.8516 44.7936 19.9258 46.978 22.0562L54.8599 29.7725C59.2105 34.0335 61.3767 39.6193 61.3767 45.2051Z" fill="url(#paint1_linear_5923_43021)"/>
<path d="M61.3773 76.0713C61.3773 81.6571 59.1929 87.2429 54.8424 91.5038L46.9604 99.2201C44.776 101.351 41.9363 102.425 39.0785 102.425C36.2206 102.425 33.3809 101.351 31.1965 99.2201C26.846 94.9592 26.846 88.0485 31.1965 83.7875L39.0785 76.0713L54.8242 60.6387C59.2111 64.8996 61.3773 70.4854 61.3773 76.0713Z" fill="url(#paint2_linear_5923_43021)"/>
<path d="M62.7238 11.7621C58.3733 16.0231 58.3733 22.9337 62.7238 27.1947C67.0744 31.4557 74.119 31.4557 78.4696 27.1947C82.8201 22.9337 82.8201 16.0231 78.4696 11.7621C74.1372 7.50116 67.0744 7.50116 62.7238 11.7621Z" fill="#208CD3"/>
<path d="M100.117 92.5078C99.5755 93.0495 98.9297 93.474 98.1797 93.7812C97.4349 94.0833 96.6224 94.2344 95.7422 94.2344C94.862 94.2344 94.0495 94.0833 93.3047 93.7812C92.5599 93.4792 91.9115 93.0547 91.3594 92.5078C90.8125 91.9557 90.3854 91.3099 90.0781 90.5703C89.776 89.8255 89.625 89.0156 89.625 88.1406C89.625 87.2604 89.776 86.4505 90.0781 85.7109C90.3854 84.9661 90.8125 84.3203 91.3594 83.7734C91.9115 83.2266 92.5599 82.8021 93.3047 82.5C94.0495 82.1979 94.862 82.0469 95.7422 82.0469C96.6172 82.0469 97.4271 82.2005 98.1719 82.5078C98.9219 82.8099 99.5651 83.2292 100.102 83.7656L98.9062 84.9844C98.5156 84.5417 98.0469 84.1953 97.5 83.9453C96.9583 83.6901 96.3646 83.5625 95.7188 83.5625C95.0938 83.5625 94.5182 83.6771 93.9922 83.9062C93.4661 84.1302 93.0078 84.4505 92.6172 84.8672C92.2266 85.2786 91.9219 85.763 91.7031 86.3203C91.4896 86.8776 91.3828 87.4844 91.3828 88.1406C91.3828 88.7969 91.4896 89.4036 91.7031 89.9609C91.9219 90.5182 92.2266 91.0052 92.6172 91.4219C93.0078 91.8333 93.4661 92.1536 93.9922 92.3828C94.5182 92.6068 95.0938 92.7188 95.7188 92.7188C96.3646 92.7188 96.9583 92.5938 97.5 92.3438C98.0469 92.0885 98.513 91.7396 98.8984 91.2969L100.117 92.5078ZM103.703 94H102V81.9688H103.703V94ZM112.477 94H111.094L111 93C110.714 93.3646 110.352 93.6484 109.914 93.8516C109.477 94.0547 108.992 94.1562 108.461 94.1562C107.904 94.1562 107.406 94.0469 106.969 93.8281C106.531 93.6094 106.188 93.3099 105.938 92.9297C105.688 92.5495 105.562 92.1172 105.562 91.6328C105.562 91.1224 105.698 90.6745 105.969 90.2891C106.24 89.8984 106.609 89.5938 107.078 89.375C107.547 89.151 108.081 89.0391 108.68 89.0391C109.055 89.0391 109.435 89.0833 109.82 89.1719C110.211 89.2604 110.562 89.3854 110.875 89.5469V89.2578C110.875 88.8776 110.776 88.5521 110.578 88.2812C110.385 88.0052 110.12 87.7943 109.781 87.6484C109.448 87.5026 109.078 87.4297 108.672 87.4297C108.312 87.4297 107.945 87.4922 107.57 87.6172C107.201 87.7422 106.852 87.9349 106.523 88.1953L106.039 86.8906C106.513 86.6094 107.005 86.3958 107.516 86.25C108.031 86.1042 108.536 86.0312 109.031 86.0312C109.74 86.0312 110.349 86.1719 110.859 86.4531C111.375 86.7344 111.773 87.1354 112.055 87.6562C112.336 88.1719 112.477 88.7812 112.477 89.4844V94ZM108.773 92.7969C109.143 92.7969 109.484 92.7214 109.797 92.5703C110.109 92.4141 110.362 92.1953 110.555 91.9141C110.753 91.6276 110.859 91.2943 110.875 90.9141V90.8047C110.609 90.6068 110.31 90.4531 109.977 90.3438C109.648 90.2292 109.312 90.1719 108.969 90.1719C108.443 90.1719 108.005 90.2969 107.656 90.5469C107.307 90.7969 107.133 91.1172 107.133 91.5078C107.133 91.7526 107.203 91.974 107.344 92.1719C107.49 92.3646 107.685 92.5182 107.93 92.6328C108.18 92.7422 108.461 92.7969 108.773 92.7969ZM114.031 93.3203L114.422 91.8828C114.599 92.0599 114.81 92.2161 115.055 92.3516C115.305 92.487 115.568 92.5938 115.844 92.6719C116.125 92.7448 116.401 92.7812 116.672 92.7812C117.099 92.7812 117.443 92.6901 117.703 92.5078C117.964 92.3255 118.094 92.0833 118.094 91.7812C118.094 91.5573 118.021 91.3724 117.875 91.2266C117.734 91.0755 117.544 90.9453 117.305 90.8359C117.07 90.7266 116.818 90.6198 116.547 90.5156C116.198 90.3854 115.849 90.2344 115.5 90.0625C115.156 89.8906 114.867 89.6615 114.633 89.375C114.398 89.0885 114.281 88.7109 114.281 88.2422C114.281 87.7943 114.396 87.4062 114.625 87.0781C114.854 86.7448 115.174 86.487 115.586 86.3047C115.997 86.1224 116.471 86.0312 117.008 86.0312C117.841 86.0312 118.667 86.2396 119.484 86.6562L119.016 88.0234C118.849 87.9036 118.651 87.7969 118.422 87.7031C118.193 87.6094 117.958 87.5365 117.719 87.4844C117.479 87.4271 117.258 87.3984 117.055 87.3984C116.716 87.3984 116.443 87.474 116.234 87.625C116.031 87.776 115.93 87.9792 115.93 88.2344C115.93 88.3906 115.979 88.5339 116.078 88.6641C116.177 88.7891 116.333 88.9141 116.547 89.0391C116.766 89.1589 117.06 89.2943 117.43 89.4453C117.784 89.5859 118.138 89.7474 118.492 89.9297C118.846 90.112 119.141 90.349 119.375 90.6406C119.615 90.9323 119.734 91.3151 119.734 91.7891C119.734 92.2578 119.609 92.6719 119.359 93.0312C119.109 93.3854 118.76 93.6615 118.312 93.8594C117.87 94.0573 117.354 94.1562 116.766 94.1562C115.792 94.1562 114.88 93.8776 114.031 93.3203ZM120.891 93.3203L121.281 91.8828C121.458 92.0599 121.669 92.2161 121.914 92.3516C122.164 92.487 122.427 92.5938 122.703 92.6719C122.984 92.7448 123.26 92.7812 123.531 92.7812C123.958 92.7812 124.302 92.6901 124.562 92.5078C124.823 92.3255 124.953 92.0833 124.953 91.7812C124.953 91.5573 124.88 91.3724 124.734 91.2266C124.594 91.0755 124.404 90.9453 124.164 90.8359C123.93 90.7266 123.677 90.6198 123.406 90.5156C123.057 90.3854 122.708 90.2344 122.359 90.0625C122.016 89.8906 121.727 89.6615 121.492 89.375C121.258 89.0885 121.141 88.7109 121.141 88.2422C121.141 87.7943 121.255 87.4062 121.484 87.0781C121.714 86.7448 122.034 86.487 122.445 86.3047C122.857 86.1224 123.331 86.0312 123.867 86.0312C124.701 86.0312 125.526 86.2396 126.344 86.6562L125.875 88.0234C125.708 87.9036 125.51 87.7969 125.281 87.7031C125.052 87.6094 124.818 87.5365 124.578 87.4844C124.339 87.4271 124.117 87.3984 123.914 87.3984C123.576 87.3984 123.302 87.474 123.094 87.625C122.891 87.776 122.789 87.9792 122.789 88.2344C122.789 88.3906 122.839 88.5339 122.938 88.6641C123.036 88.7891 123.193 88.9141 123.406 89.0391C123.625 89.1589 123.919 89.2943 124.289 89.4453C124.643 89.5859 124.997 89.7474 125.352 89.9297C125.706 90.112 126 90.349 126.234 90.6406C126.474 90.9323 126.594 91.3151 126.594 91.7891C126.594 92.2578 126.469 92.6719 126.219 93.0312C125.969 93.3854 125.62 93.6615 125.172 93.8594C124.729 94.0573 124.214 94.1562 123.625 94.1562C122.651 94.1562 121.74 93.8776 120.891 93.3203ZM129.898 94H128.297V86.1875H129.695L129.758 87.6719C130.029 87.1562 130.401 86.7552 130.875 86.4688C131.354 86.1771 131.904 86.0312 132.523 86.0312C132.674 86.0312 132.826 86.0417 132.977 86.0625C133.133 86.0781 133.289 86.1042 133.445 86.1406L133.242 87.5859C132.94 87.5078 132.643 87.4688 132.352 87.4688C131.867 87.4688 131.44 87.5859 131.07 87.8203C130.701 88.0495 130.411 88.3672 130.203 88.7734C130 89.1797 129.898 89.6484 129.898 90.1797V94ZM138.219 94.1562C137.438 94.1562 136.734 93.9792 136.109 93.625C135.484 93.2708 134.992 92.7891 134.633 92.1797C134.273 91.5651 134.094 90.8698 134.094 90.0938C134.094 89.3229 134.273 88.6328 134.633 88.0234C134.992 87.4089 135.484 86.9245 136.109 86.5703C136.734 86.2109 137.438 86.0312 138.219 86.0312C139.005 86.0312 139.708 86.2109 140.328 86.5703C140.948 86.9245 141.435 87.4089 141.789 88.0234C142.148 88.6328 142.328 89.3229 142.328 90.0938C142.328 90.8698 142.148 91.5651 141.789 92.1797C141.435 92.7891 140.948 93.2708 140.328 93.625C139.708 93.9792 139.005 94.1562 138.219 94.1562ZM138.211 92.7188C138.685 92.7188 139.107 92.6042 139.477 92.375C139.852 92.1406 140.146 91.8281 140.359 91.4375C140.578 91.0417 140.688 90.5911 140.688 90.0859C140.688 89.5911 140.578 89.1484 140.359 88.7578C140.146 88.362 139.852 88.0495 139.477 87.8203C139.107 87.5859 138.685 87.4688 138.211 87.4688C137.742 87.4688 137.32 87.5859 136.945 87.8203C136.57 88.0495 136.273 88.362 136.055 88.7578C135.841 89.1484 135.734 89.5911 135.734 90.0859C135.734 90.5911 135.841 91.0417 136.055 91.4375C136.273 91.8281 136.57 92.1406 136.945 92.375C137.32 92.6042 137.742 92.7188 138.211 92.7188ZM147.547 94.1562C146.766 94.1562 146.062 93.9792 145.438 93.625C144.812 93.2708 144.32 92.7891 143.961 92.1797C143.602 91.5651 143.422 90.8698 143.422 90.0938C143.422 89.3229 143.602 88.6328 143.961 88.0234C144.32 87.4089 144.812 86.9245 145.438 86.5703C146.062 86.2109 146.766 86.0312 147.547 86.0312C148.333 86.0312 149.036 86.2109 149.656 86.5703C150.276 86.9245 150.763 87.4089 151.117 88.0234C151.477 88.6328 151.656 89.3229 151.656 90.0938C151.656 90.8698 151.477 91.5651 151.117 92.1797C150.763 92.7891 150.276 93.2708 149.656 93.625C149.036 93.9792 148.333 94.1562 147.547 94.1562ZM147.539 92.7188C148.013 92.7188 148.435 92.6042 148.805 92.375C149.18 92.1406 149.474 91.8281 149.688 91.4375C149.906 91.0417 150.016 90.5911 150.016 90.0859C150.016 89.5911 149.906 89.1484 149.688 88.7578C149.474 88.362 149.18 88.0495 148.805 87.8203C148.435 87.5859 148.013 87.4688 147.539 87.4688C147.07 87.4688 146.648 87.5859 146.273 87.8203C145.898 88.0495 145.602 88.362 145.383 88.7578C145.169 89.1484 145.062 89.5911 145.062 90.0859C145.062 90.5911 145.169 91.0417 145.383 91.4375C145.602 91.8281 145.898 92.1406 146.273 92.375C146.648 92.6042 147.07 92.7188 147.539 92.7188ZM165.812 94H164.211V89.9141C164.211 89.138 164.044 88.5365 163.711 88.1094C163.383 87.6823 162.919 87.4688 162.32 87.4688C161.711 87.4688 161.234 87.6849 160.891 88.1172C160.547 88.5495 160.375 89.1484 160.375 89.9141V94H158.773V89.9141C158.773 89.138 158.607 88.5365 158.273 88.1094C157.94 87.6823 157.474 87.4688 156.875 87.4688C156.266 87.4688 155.789 87.6849 155.445 88.1172C155.102 88.5495 154.93 89.1484 154.93 89.9141V94H153.328V86.1875H154.625L154.688 87.5469C154.948 87.0521 155.299 86.6771 155.742 86.4219C156.19 86.1615 156.716 86.0312 157.32 86.0312C157.961 86.0312 158.51 86.1719 158.969 86.4531C159.427 86.7344 159.773 87.138 160.008 87.6641C160.268 87.1276 160.628 86.7214 161.086 86.4453C161.549 86.1693 162.099 86.0312 162.734 86.0312C163.703 86.0312 164.458 86.3385 165 86.9531C165.542 87.5677 165.812 88.4245 165.812 89.5234V94Z" fill="#F96756"/>
<defs>
<linearGradient id="paint0_linear_5923_43021" x1="65.9912" y1="45.6569" x2="65.9912" y2="73.3287" gradientUnits="userSpaceOnUse">
<stop stop-color="#383473"/>
<stop offset="1" stop-color="#242153"/>
</linearGradient>
<linearGradient id="paint1_linear_5923_43021" x1="32.1977" y1="22.9726" x2="60.2047" y2="51.4487" gradientUnits="userSpaceOnUse">
<stop stop-color="#1F8CD3"/>
<stop offset="1" stop-color="#225ED5"/>
</linearGradient>
<linearGradient id="paint2_linear_5923_43021" x1="63.1229" y1="67.8994" x2="32.7667" y2="98.7641" gradientUnits="userSpaceOnUse">
<stop stop-color="#E2251C"/>
<stop offset="1" stop-color="#FC3F32"/>
</linearGradient>
</defs>
</svg>
