<svg width="118" height="57" viewBox="0 0 118 57" fill="none" xmlns="http://www.w3.org/2000/svg">
<path d="M43.5857 35.136L44.3588 33.9317C44.5336 33.6651 44.8925 33.5731 45.1686 33.7478C46.3282 34.4833 47.8743 34.897 49.4113 34.897C51.123 34.897 52.0986 34.3546 52.0986 33.3801C52.0986 32.4331 51.2335 31.9735 49.172 31.7528C45.6748 31.431 43.6961 29.9693 43.6961 27.6341C43.6961 25.1978 46.0245 23.543 49.4941 23.543C51.2979 23.543 52.9177 23.9475 54.2981 24.7657C54.5834 24.9312 54.6755 25.2989 54.5006 25.5747L53.7735 26.7607C53.6171 27.0273 53.2766 27.1193 53.0005 26.9722C51.9421 26.4022 50.8285 26.108 49.6229 26.108C47.6995 26.108 46.6687 26.6504 46.6687 27.6249C46.6687 28.4891 47.451 28.9488 49.4021 29.1694C53.3594 29.6015 55.0896 30.8794 55.0896 33.3893C55.0896 35.8807 52.7888 37.5631 49.3192 37.5631C47.2669 37.5631 45.4171 37.0207 43.7513 35.9175C43.4937 35.7704 43.4108 35.4118 43.5857 35.136Z" fill="black"/>
<path d="M58.3933 23.8828H60.2615C60.5836 23.8828 60.8413 24.1402 60.8413 24.462V36.6802C60.8413 37.002 60.5836 37.2594 60.2615 37.2594H58.3933C58.0712 37.2594 57.8135 37.002 57.8135 36.6802V24.4712C57.8135 24.1494 58.0712 23.8828 58.3933 23.8828Z" fill="black"/>
<path d="M63.8874 35.136L64.6605 33.9317C64.8354 33.6651 65.1943 33.5731 65.4704 33.7478C66.63 34.4833 68.1761 34.897 69.713 34.897C71.4248 34.897 72.4003 34.3546 72.4003 33.3801C72.4003 32.4331 71.5352 31.9735 69.4737 31.7528C65.9766 31.431 63.9979 29.9693 63.9979 27.6341C63.9979 25.1978 66.3263 23.543 69.7959 23.543C71.5997 23.543 73.2194 23.9475 74.5999 24.7657C74.8852 24.9312 74.9772 25.2989 74.8024 25.5747L74.0753 26.7607C73.9189 27.0273 73.5783 27.1193 73.3022 26.9722C72.2439 26.4022 71.1303 26.108 69.9247 26.108C68.0012 26.108 66.9705 26.6504 66.9705 27.6249C66.9705 28.4891 67.7528 28.9488 69.7038 29.1694C73.6612 29.6015 75.3914 30.8794 75.3914 33.3893C75.3914 35.8807 73.0906 37.5631 69.621 37.5631C67.5687 37.5631 65.7189 37.0207 64.0531 35.9175C63.7954 35.7704 63.7126 35.4118 63.8874 35.136Z" fill="black"/>
<path d="M90.6139 24.7018L85.4418 36.9108C85.3498 37.1222 85.1381 37.2693 84.908 37.2693H82.4324C82.2023 37.2693 81.9906 37.1314 81.8986 36.9108L76.708 24.7018C76.5424 24.3156 76.8277 23.8927 77.2418 23.8927H79.2757C79.515 23.8927 79.7266 24.0398 79.8187 24.2513L81.5397 28.4619L83.684 34.1159L85.8559 28.4619L87.5769 24.2513C87.6689 24.0306 87.8806 23.8927 88.1199 23.8927H90.0986C90.4943 23.8835 90.7796 24.3156 90.6139 24.7018Z" fill="black"/>
<path d="M105.127 24.4719V36.6809C105.127 37.0027 104.87 37.2601 104.548 37.2601H103.001C102.679 37.2601 102.422 37.0027 102.422 36.6809L102.403 35.4673C101.372 36.7636 99.587 37.5543 97.5255 37.5543C93.5958 37.5543 90.8809 34.6859 90.8809 30.5672C90.8809 26.4485 93.5958 23.5801 97.5255 23.5801C99.6146 23.5801 101.372 24.3615 102.403 25.667L102.422 24.4535C102.431 24.1317 102.688 23.8743 103.001 23.8743H104.548C104.87 23.8835 105.127 24.1501 105.127 24.4719ZM102.09 30.5764C102.09 28.0849 100.406 26.3565 97.9949 26.3565C95.5837 26.3565 93.8995 28.0849 93.8995 30.5764C93.8995 33.0678 95.5837 34.7962 97.9949 34.7962C100.406 34.7962 102.09 33.0678 102.09 30.5764Z" fill="black"/>
<path d="M37.4746 31.1387C37.4746 34.0071 36.3702 36.8755 34.1798 39.0636L26.2099 46.9884C28.4095 44.8004 29.5139 41.932 29.5139 39.0636C29.5139 36.1952 28.4095 33.3268 26.2099 31.1387C28.4095 28.9507 29.5139 26.0823 29.5139 23.2139C29.5139 20.3455 28.4095 17.4771 26.2099 15.2891L34.1798 23.2139C36.3794 25.402 37.4746 28.2704 37.4746 31.1387Z" fill="url(#paint0_linear_4813_25456)"/>
<path d="M29.5135 23.2126C29.5135 26.081 28.4091 28.9494 26.2096 31.1374L18.2489 23.2126L14.2639 19.2502C12.0644 17.0621 12.0644 13.5134 14.2639 11.3253C15.3591 10.2313 16.804 9.67969 18.2489 9.67969C19.6938 9.67969 21.1295 10.2313 22.2338 11.3253L26.2188 15.2878C28.4183 17.4758 29.5135 20.3442 29.5135 23.2126Z" fill="url(#paint1_linear_4813_25456)"/>
<path d="M29.5139 39.0635C29.5139 41.9319 28.4095 44.8003 26.21 46.9883L22.225 50.9508C21.1207 52.0448 19.685 52.5964 18.2401 52.5964C16.7952 52.5964 15.3595 52.0448 14.2551 50.9508C12.0556 48.7627 12.0556 45.214 14.2551 43.0259L18.2401 39.0635L26.2008 31.1387C28.4187 33.3267 29.5139 36.1951 29.5139 39.0635Z" fill="url(#paint2_linear_4813_25456)"/>
<path d="M30.1946 6.03949C27.995 8.22755 27.995 11.7763 30.1946 13.9643C32.3941 16.1524 35.9557 16.1524 38.1553 13.9643C40.3548 11.7763 40.3548 8.22755 38.1553 6.03949C35.9649 3.85142 32.3941 3.85142 30.1946 6.03949Z" fill="#208CD3"/>
<defs>
<linearGradient id="paint0_linear_4813_25456" x1="31.8468" y1="23.4454" x2="31.8468" y2="37.6553" gradientUnits="userSpaceOnUse">
<stop stop-color="#383473"/>
<stop offset="1" stop-color="#242153"/>
</linearGradient>
<linearGradient id="paint1_linear_4813_25456" x1="14.7612" y1="11.7959" x2="29.1452" y2="26.1948" gradientUnits="userSpaceOnUse">
<stop stop-color="#1F8CD3"/>
<stop offset="1" stop-color="#225ED5"/>
</linearGradient>
<linearGradient id="paint2_linear_4813_25456" x1="30.3965" y1="34.8671" x2="14.806" y2="50.4739" gradientUnits="userSpaceOnUse">
<stop stop-color="#E2251C"/>
<stop offset="1" stop-color="#FC3F32"/>
</linearGradient>
</defs>
</svg>
