<svg width="360" height="308" viewBox="0 0 360 308" fill="none" xmlns="http://www.w3.org/2000/svg">
<rect x="-114" y="128.223" width="144.564" height="144.564" rx="24" transform="rotate(-48.4706 -114 128.223)" fill="url(#paint0_linear_2360_28571)" fill-opacity="0.8"/>
<path d="M467.894 41.7383C485.606 72.4165 491.207 110.087 480.596 147.416L344.358 113.062L276.188 95.9141C238.555 86.4389 216.642 48.4844 227.253 11.1556C232.508 -7.47959 244.948 -22.5278 260.793 -31.6764C276.639 -40.8249 295.79 -44.0155 314.657 -39.307L382.827 -22.1591C420.46 -12.6839 450.182 11.0601 467.894 41.7383Z" fill="url(#paint1_linear_2360_28571)"/>
<circle opacity="0.15" cx="275.457" cy="308.457" r="104.457" transform="rotate(180 275.457 308.457)" fill="url(#paint2_linear_2360_28571)" fill-opacity="0.9"/>
<defs>
<linearGradient id="paint0_linear_2360_28571" x1="-41.7178" y1="128.223" x2="-41.7178" y2="272.787" gradientUnits="userSpaceOnUse">
<stop stop-color="white"/>
<stop offset="0.0001" stop-color="white" stop-opacity="0"/>
<stop offset="0.482124" stop-color="white" stop-opacity="0.04"/>
<stop offset="1" stop-color="white" stop-opacity="0.12"/>
</linearGradient>
<linearGradient id="paint1_linear_2360_28571" x1="235.612" y1="13.0397" x2="480.538" y2="82.1056" gradientUnits="userSpaceOnUse">
<stop stop-color="white" stop-opacity="0.04"/>
<stop offset="1" stop-color="white" stop-opacity="0.2"/>
</linearGradient>
<linearGradient id="paint2_linear_2360_28571" x1="275.457" y1="204" x2="275.457" y2="412.914" gradientUnits="userSpaceOnUse">
<stop stop-color="white" stop-opacity="0"/>
<stop offset="0.5" stop-color="white" stop-opacity="0.86"/>
<stop offset="1" stop-color="white" stop-opacity="0.12"/>
</linearGradient>
</defs>
</svg>
