<svg width="20" height="24" viewBox="0 0 20 24" fill="none" xmlns="http://www.w3.org/2000/svg">
<g opacity="0.3">
<path opacity="0.3" d="M13.967 4.9248C13.4203 4.92427 12.8961 4.70685 12.5095 4.32028C12.1229 3.93371 11.9055 3.40956 11.905 2.86287V0H2.691C1.9773 0 1.29284 0.283511 0.788177 0.788151C0.283517 1.29279 0 1.97721 0 2.69088V18.9122C0.00105984 19.6252 0.285042 20.3086 0.789587 20.8124C1.29413 21.3161 1.97799 21.5991 2.691 21.5991H13.752C14.465 21.5991 15.1489 21.3161 15.6534 20.8124C16.158 20.3086 16.4419 19.6252 16.443 18.9122V4.9248H13.967Z" fill="#FF3E4C"/>
</g>
<path d="M16.443 4.9248H13.967C13.4203 4.92427 12.8961 4.70685 12.5095 4.32028C12.1229 3.93371 11.9055 3.40956 11.905 2.86287V0L16.443 4.9248Z" fill="#FF3E4C"/>
<path d="M13.06 10.8594H2.73596C2.63668 10.8594 2.54145 10.82 2.47115 10.7499C2.40085 10.6797 2.36123 10.5846 2.36096 10.4854C2.36096 10.3859 2.40047 10.2905 2.47079 10.2202C2.54112 10.1498 2.63651 10.1104 2.73596 10.1104H13.06C13.1092 10.1104 13.1579 10.1201 13.2033 10.1389C13.2488 10.1578 13.29 10.1854 13.3248 10.2202C13.3595 10.2551 13.387 10.2964 13.4058 10.3419C13.4245 10.3874 13.4341 10.4362 13.434 10.4854C13.434 10.5845 13.3946 10.6797 13.3244 10.7498C13.2543 10.8199 13.1592 10.8594 13.06 10.8594Z" fill="#FF3E4C"/>
<path d="M13.06 12.9717H2.73596C2.63651 12.9717 2.54112 12.9321 2.47079 12.8618C2.40047 12.7915 2.36096 12.6961 2.36096 12.5967C2.36123 12.4974 2.40085 12.4022 2.47115 12.3321C2.54145 12.262 2.63668 12.2227 2.73596 12.2227H13.06C13.1592 12.2227 13.2543 12.2621 13.3244 12.3322C13.3946 12.4023 13.434 12.4975 13.434 12.5967C13.4341 12.6459 13.4245 12.6946 13.4058 12.7401C13.387 12.7856 13.3595 12.8269 13.3248 12.8618C13.29 12.8966 13.2488 12.9242 13.2033 12.9431C13.1579 12.9619 13.1092 12.9717 13.06 12.9717Z" fill="#FF3E4C"/>
<path d="M8.98784 8.74802H2.73584C2.63656 8.74802 2.54132 8.70866 2.47103 8.63855C2.40073 8.56844 2.3611 8.47331 2.36084 8.37402C2.36084 8.27457 2.40035 8.17919 2.47067 8.10886C2.541 8.03854 2.63638 7.99902 2.73584 7.99902H8.98784C9.08712 7.99929 9.18225 8.03891 9.25236 8.1092C9.32247 8.1795 9.36184 8.27474 9.36184 8.37402C9.36158 8.47313 9.32209 8.5681 9.25201 8.63818C9.18193 8.70827 9.08695 8.74776 8.98784 8.74802Z" fill="#FF3E4C"/>
<path d="M8.98796 6.63572H2.73596C2.63668 6.63572 2.54145 6.59633 2.47115 6.52622C2.40085 6.45611 2.36123 6.361 2.36096 6.26172C2.36096 6.16226 2.40047 6.06686 2.47079 5.99653C2.54112 5.92621 2.63651 5.88672 2.73596 5.88672H8.98796C9.08725 5.88698 9.18237 5.9266 9.25248 5.9969C9.32259 6.0672 9.36196 6.16244 9.36196 6.26172C9.3617 6.36083 9.32221 6.4558 9.25213 6.52588C9.18205 6.59596 9.08707 6.63545 8.98796 6.63572Z" fill="#FF3E4C"/>
<path d="M18.3942 17.0605H5.89018C5.00321 17.0605 4.28418 17.7795 4.28418 18.6665V22.3943C4.28418 23.2813 5.00321 24.0003 5.89018 24.0003H18.3942C19.2811 24.0003 20.0002 23.2813 20.0002 22.3943V18.6665C20.0002 17.7795 19.2811 17.0605 18.3942 17.0605Z" fill="#FF3E4C"/>
<path d="M8.38597 21.3369V22.0639H7.63397V21.3369H8.38597Z" fill="white"/>
<path d="M9.49214 21.0095V22.0645H8.76514V19.0576H9.94314C10.3001 19.0576 10.5731 19.1466 10.7601 19.3236C10.8548 19.4166 10.9286 19.5285 10.9769 19.6521C11.0252 19.7757 11.0467 19.9081 11.0401 20.0406C11.0438 20.2154 11.0006 20.388 10.9151 20.5405C10.8278 20.6897 10.6984 20.8097 10.5431 20.8855C10.3558 20.9741 10.1502 21.0169 9.94314 21.0105L9.49214 21.0095ZM10.3001 20.0406C10.3001 19.7739 10.1541 19.6406 9.86214 19.6406H9.49214V20.4236H9.86214C10.1541 20.4262 10.3001 20.2985 10.3001 20.0406Z" fill="white"/>
<path d="M13.913 21.3391C13.7878 21.5665 13.5987 21.7521 13.369 21.8731C13.1106 22.0054 12.8232 22.071 12.533 22.0641H11.398V19.0572H12.533C12.8235 19.0499 13.1112 19.1141 13.371 19.2442C13.6 19.3625 13.7887 19.5463 13.913 19.7722C14.0431 20.0119 14.1086 20.2814 14.103 20.5541C14.1084 20.8278 14.043 21.0982 13.913 21.3391ZM13.131 21.1881C13.2123 21.1047 13.2753 21.0052 13.3159 20.896C13.3566 20.7868 13.374 20.6704 13.367 20.5541C13.374 20.438 13.3566 20.3217 13.316 20.2127C13.2753 20.1037 13.2123 20.0044 13.131 19.9212C12.9491 19.7616 12.7115 19.6803 12.47 19.6952H12.125V21.4131H12.47C12.7113 21.4278 12.9488 21.3469 13.131 21.1881Z" fill="white"/>
<path d="M16.4761 19.0576V19.6366H15.2431V20.2956H16.1951V20.8485H15.2431V22.0645H14.5151V19.0576H16.4761Z" fill="white"/>
<path d="M12.877 5.88672H11.109C10.8008 5.88672 10.551 6.13653 10.551 6.4447V8.21262C10.551 8.52078 10.8008 8.7706 11.109 8.7706H12.877C13.1851 8.7706 13.435 8.52078 13.435 8.21262V6.4447C13.435 6.13653 13.1851 5.88672 12.877 5.88672Z" fill="#FF3E4C"/>
</svg>
