<svg width="55" height="56" viewBox="0 0 55 56" fill="none" xmlns="http://www.w3.org/2000/svg">
<path d="M32.2581 24.6859C33.5189 24.7025 34.6367 23.6145 34.666 22.3428C34.6955 21.054 33.5641 19.9106 32.264 19.915C30.9946 19.9191 29.8897 21.0292 29.8934 22.2969C29.8971 23.5735 30.9816 24.6689 32.2581 24.6859ZM13.7806 15.1286C14.3763 15.1286 14.9735 15.1526 15.5681 15.1238C16.9066 15.0591 17.9397 14.0003 17.9335 12.7304C17.9272 11.456 16.8907 10.3965 15.5492 10.3577C14.3586 10.3229 13.1654 10.3252 11.9744 10.3566C10.6218 10.3925 9.59382 11.4253 9.57312 12.7097C9.55241 14.0029 10.6173 15.0761 11.9932 15.126C12.5882 15.1474 13.1846 15.1297 13.7806 15.1286ZM15.5459 34.2558C16.6888 34.2558 17.8318 34.2672 18.9747 34.2528C20.4268 34.235 21.505 33.2207 21.519 31.8834C21.5335 30.5555 20.4453 29.4897 19.0113 29.479C16.7007 29.4616 14.39 29.4616 12.0794 29.4793C10.6391 29.49 9.56055 30.547 9.57312 31.8816C9.58606 33.217 10.6672 34.2347 12.1175 34.2528C13.26 34.2672 14.403 34.2558 15.5459 34.2558ZM17.3492 24.6933C19.0394 24.6933 20.7296 24.6973 22.4198 24.6918C23.9879 24.6866 25.0987 23.6963 25.105 22.3102C25.1113 20.926 23.9953 19.9157 22.4357 19.9131C19.0302 19.908 15.625 19.9072 12.2195 19.9135C10.6643 19.9165 9.5513 20.9431 9.57312 22.3298C9.59493 23.6944 10.688 24.6837 12.204 24.6911C13.9189 24.6996 15.6343 24.6933 17.3492 24.6933ZM50.2097 34.2554C50.2097 29.9475 50.2145 25.6396 50.2082 21.3317C50.2049 18.992 48.7262 17.5305 46.3734 17.5216C45.5018 17.5183 44.6285 17.556 43.7595 17.5087C43.1945 17.478 43.0196 17.6192 43.0226 18.2228C43.0488 23.9 43.04 29.5777 43.0378 35.2553C43.0359 40.2322 39.4647 43.8153 34.5029 43.8179C28.8256 43.8205 23.1482 43.8253 17.4709 43.8071C16.9266 43.8053 16.6788 43.8859 16.7262 44.5127C16.7898 45.3544 16.741 46.2046 16.7421 47.0515C16.7454 49.5462 18.1827 50.9892 20.6745 50.9895C29.1905 50.9914 37.7065 50.991 46.2225 50.9899C48.7779 50.9895 50.2082 49.5691 50.2093 47.03C50.2111 42.7717 50.21 38.5137 50.2097 34.2554ZM33.4128 55.7719C29.1051 55.7719 24.7974 55.7741 20.4896 55.7712C15.564 55.7678 11.9677 52.1855 11.9607 47.2793C11.9596 46.3329 11.9241 45.3851 11.9744 44.4414C12.0039 43.8926 11.8094 43.8101 11.3103 43.8034C9.79571 43.7831 8.27784 43.9392 6.76625 43.6777C3.00613 43.028 0.0251048 39.5973 0.0162305 35.7838C-0.00410646 26.7949 -0.00706458 17.8056 0.0173398 8.81634C0.0288024 4.52583 3.739 0.808896 8.02603 0.796692C17.0146 0.771175 26.0039 0.772285 34.9925 0.795583C39.2946 0.807047 42.9745 4.49957 43.0333 8.79119C43.0485 9.91134 43.0673 11.0333 43.0248 12.152C43.0056 12.6649 43.186 12.7444 43.649 12.7526C45.1883 12.7803 46.732 12.615 48.2677 12.8827C51.9819 13.5299 54.9704 16.9639 54.9807 20.7352C55.0048 29.7493 55.0084 38.7633 54.9796 47.7774C54.9659 52.0291 51.2535 55.7308 47.0079 55.7612C42.4765 55.7937 37.9446 55.7686 33.4128 55.7686V55.7719Z" fill="#1D2939"/>
</svg>
