<svg width="55" height="55" viewBox="0 0 55 55" fill="none" xmlns="http://www.w3.org/2000/svg">
<path d="M52.7082 38.9583H43.5416V29.7917C43.5416 28.526 42.5156 27.5 41.2499 27.5C39.9842 27.5 38.9582 28.526 38.9582 29.7917V38.9583H29.7917C28.526 38.9583 27.5 39.9843 27.5 41.25C27.5 42.5157 28.526 43.5416 29.7917 43.5416H38.9583V52.7082C38.9583 53.9739 39.9843 54.9999 41.25 54.9999C42.5157 54.9999 43.5417 53.9739 43.5417 52.7082V43.5416H52.7083C53.974 43.5416 55 42.5156 55 41.2499C55 39.9842 53.9737 38.9583 52.7082 38.9583Z" fill="#1D2939"/>
<rect width="24.4444" height="24.4444" rx="2" fill="#1D2939"/>
<rect x="30.5547" width="24.4444" height="24.4444" rx="2" fill="#1D2939"/>
<rect y="30.5557" width="24.4444" height="24.4444" rx="2" fill="#1D2939"/>
</svg>
